<?xml version="1.0" encoding="UTF-8" standalone="no"?>
<!DOCTYPE svg PUBLIC "-//W3C//DTD SVG 1.1//EN" "http://www.w3.org/Graphics/SVG/1.1/DTD/svg11.dtd">
<svg width="100%" height="100%" viewBox="0 0 83 83" version="1.1" xmlns="http://www.w3.org/2000/svg" xmlns:xlink="http://www.w3.org/1999/xlink" xml:space="preserve" xmlns:serif="http://www.serif.com/" style="fill-rule:evenodd;clip-rule:evenodd;stroke-linejoin:round;stroke-miterlimit:2;">
    <g id="Artboard1" transform="matrix(1.0313,0,0,1.20412,-1.97994,-13.4754)">
        <rect x="1.92" y="11.191" width="80.435" height="68.304" style="fill:none;"/>
        <clipPath id="_clip1">
            <rect x="1.92" y="11.191" width="80.435" height="68.304"/>
        </clipPath>
        <g clip-path="url(#_clip1)">
            <g transform="matrix(0.969652,0,0,0.830483,2.58371,11.7043)">
                <path d="M113.231,61.219C99.245,61.219 122.032,22.987 124.895,24.283L122.465,30.925C118.846,29.953 106.481,53.551 114.203,53.551C117.928,53.551 120.143,53.227 123.057,52.471L125.002,59.383C121.33,60.733 118.145,61.219 113.231,61.219ZM150.71,45.937C150.71,41.185 149.523,37.567 144.552,37.567C139.693,37.567 138.344,41.185 138.344,45.992C138.344,51.067 139.856,54.145 144.661,54.145C149.523,54.145 150.709,50.959 150.709,45.937L150.71,45.937ZM129.27,46.207C129.27,36.432 135.373,30.438 144.715,30.438C155.191,30.438 159.891,36.325 159.891,45.938C159.891,55.981 153.3,61.328 144.228,61.328C134.509,61.328 129.27,55.441 129.27,46.206L129.27,46.207ZM162.81,31.195L172.476,31.195L177.444,47.179L178.956,53.065L180.631,47.179L186.137,31.195L195.589,31.195L184.14,60.679L173.447,60.679L162.81,31.195ZM216.27,53.173L216.27,48.53L211.845,48.639C209.197,48.692 207.255,49.556 207.255,51.716C207.255,53.444 208.928,54.2 210.548,54.2C212.276,54.2 214.328,53.713 216.271,53.174L216.27,53.173ZM198.505,52.255C198.505,44.803 205.311,43.291 211.143,43.291L216.271,43.291L216.271,41.454C216.271,38.863 214.597,38.107 210.927,38.107C208.009,38.107 204.877,38.755 202.123,39.402L200.343,32.868C203.691,31.573 207.579,30.493 212.276,30.493C221.403,30.493 225.075,33.085 225.075,39.727L225.075,52.849C225.075,53.821 226.047,54.037 227.72,54.091L227.396,60.895C226.695,60.949 225.991,60.949 225.289,60.949C221.727,60.949 217.947,60.355 217.137,57.817C214.977,59.492 211.899,61.165 208.657,61.165C202.179,61.165 198.505,58.141 198.505,52.255ZM234.419,19.962L243.437,19.962L243.437,60.68L234.419,60.68L234.419,19.962ZM268.441,42.913C268.549,39.349 266.983,36.865 264.067,36.865C260.989,36.865 258.992,39.025 258.829,42.913L268.441,42.913ZM249.593,46.368C249.593,34.327 255.913,30.493 264.823,30.493C274.111,30.493 277.676,36.541 277.676,45.451L277.676,48.691L258.56,48.691C258.507,53.335 262.177,54.199 266.873,54.199C268.873,54.199 272.221,53.551 275.3,53.011L276.65,59.868C273.356,60.841 269.144,61.328 265.58,61.328C255.86,61.328 249.593,58.141 249.593,46.368ZM283.835,31.195L292.853,31.195L292.853,34.165C294.636,32.815 298.524,30.438 302.467,30.438C311.7,30.438 312.348,35.514 312.348,42.211L312.348,60.68L303.383,60.68L303.383,42.967C303.383,38.917 302.467,38.215 299.44,38.215C296.741,38.215 294.312,39.079 292.853,39.781L292.853,60.679L283.835,60.679L283.835,31.195ZM321.205,51.499L321.205,37.837L316.887,37.837L316.887,31.195L321.205,31.195L321.205,25.146L330.169,25.146L330.169,31.195L339.297,31.195L339.297,37.837L330.169,37.837L330.169,51.445C330.169,53.605 330.98,53.767 333.411,53.767C335.408,53.767 339.783,53.173 339.783,53.173L340.647,60.247C338.54,60.841 335.679,61.273 333.519,61.273C327.848,61.273 321.205,61.543 321.205,51.499ZM40.648,18.956L40.648,-0.004C18.188,-0.004 0,18.185 0,40.644C0,63.104 18.189,81.294 40.648,81.294L40.648,62.334C28.66,62.334 18.96,52.633 18.96,40.644C18.96,28.657 28.66,18.956 40.648,18.956" style="fill:white;fill-rule:nonzero;"/>
                <path d="M62.416,18.956C61.171,18.956 59.938,18.711 58.788,18.235C57.638,17.758 56.593,17.06 55.713,16.18C54.832,15.299 54.134,14.254 53.658,13.104C53.181,11.954 52.936,10.721 52.936,9.476C52.936,8.231 53.181,6.998 53.658,5.848C54.134,4.698 54.832,3.653 55.713,2.773C56.593,1.892 57.638,1.194 58.788,0.718C59.938,0.241 61.171,-0.004 62.416,-0.004C64.93,-0.004 67.342,0.995 69.119,2.773C70.897,4.551 71.896,6.962 71.896,9.476C71.896,11.99 70.897,14.402 69.119,16.18C67.342,17.957 64.93,18.956 62.416,18.956" style="fill:rgb(0,216,213);fill-rule:nonzero;"/>
                <path d="M62.257,81.293C59.743,81.293 57.332,80.294 55.554,78.516C53.776,76.739 52.777,74.327 52.777,71.813C52.777,69.299 53.776,66.888 55.554,65.11C57.332,63.332 59.743,62.333 62.257,62.333C64.771,62.333 67.183,63.332 68.961,65.11C70.738,66.888 71.737,69.299 71.737,71.813C71.737,74.327 70.738,76.739 68.961,78.516C67.183,80.294 64.771,81.293 62.257,81.293" style="fill:rgb(255,76,139);fill-rule:nonzero;"/>
                <path d="M62.337,40.644C62.337,52.633 52.637,62.334 40.648,62.334L40.648,18.955C52.636,18.955 62.337,28.655 62.337,40.643" style="fill:white;fill-rule:nonzero;"/>
            </g>
        </g>
    </g>
</svg>
