<svg width="80" height="80" viewBox="0 0 80 80" fill="none" xmlns="http://www.w3.org/2000/svg">
<path d="M40 80C62.0914 80 80 62.0914 80 40C80 17.9086 62.0914 0 40 0C17.9086 0 0 17.9086 0 40C0 62.0914 17.9086 80 40 80Z" fill="#02E2AC"/>
<path fill-rule="evenodd" clip-rule="evenodd" d="M50.5775 33.7549C52.2254 36.0648 53.12 38.8698 53.0965 41.6984C53.0965 44.4797 52.2019 47.2611 50.5775 49.524L54.0146 52.1404C56.2041 49.1233 57.4048 45.4462 57.4048 41.7219C57.4283 37.7855 56.1335 33.9198 53.7557 30.8084L51.7845 32.5853L50.5775 33.7549Z" fill="#0E0333"/>
<path fill-rule="evenodd" clip-rule="evenodd" d="M57.075 54.4576L45.5156 45.6655C46.3396 44.5812 46.8104 43.2612 46.881 41.8941C46.9282 40.527 46.575 39.1834 45.8452 38.0284L51.3777 33.0313L57.1691 27.6099C57.5458 27.2563 57.5693 26.6435 57.1926 26.2663L56.3922 25.465C52.2723 21.2928 46.7163 18.865 40.8777 18.6764L40.9013 15.4943C40.9249 15.2822 40.9013 15.07 40.8542 14.8578C40.7836 14.6457 40.6894 14.4571 40.5482 14.2922C40.4069 14.1271 40.2421 14.0093 40.0302 13.915C39.8419 13.8207 39.63 13.7736 39.4181 13.7736C39.2063 13.7736 38.9943 13.8207 38.806 13.915C38.6177 14.0093 38.4293 14.1271 38.2881 14.2922C38.1468 14.4571 38.0291 14.6457 37.982 14.8343C37.9114 15.0464 37.8878 15.2585 37.935 15.4707L37.9114 18.7471C36.5224 18.8885 35.1334 19.1478 33.7915 19.5485L33.815 15.4707C33.8385 15.2585 33.815 15.0464 33.7679 14.8343C33.6973 14.6222 33.6031 14.4336 33.4619 14.2686C33.3206 14.1036 33.1558 13.9857 32.9439 13.8914C32.7556 13.7971 32.5437 13.75 32.3318 13.75C32.12 13.75 31.9081 13.7971 31.7197 13.8914C31.5314 13.9857 31.343 14.1036 31.2018 14.2686C31.0605 14.4336 30.9429 14.6222 30.8957 14.8107C30.8251 15.0229 30.8016 15.235 30.8487 15.4471L30.778 20.6563C26.0224 22.7778 22.1144 26.4785 19.7366 31.122C17.3589 35.7656 16.6055 41.0927 17.6414 46.2077C18.6772 51.3226 21.4317 55.9425 25.4339 59.2897C29.4361 62.6368 34.4742 64.5225 39.677 64.6168L56.5099 64.6875C57.0278 64.6875 57.4517 64.2632 57.4517 63.7446V55.2354C57.4517 54.929 57.3103 54.6462 57.075 54.4576ZM40.0067 60.5154C35.8632 60.4918 31.8375 59.1011 28.565 56.579C25.2927 54.0333 22.9384 50.474 21.879 46.467C20.8196 42.4598 21.1256 38.1934 22.703 34.3749C24.3039 30.5564 27.1054 27.3506 30.7074 25.2763L30.6839 31.4756C30.6603 31.6877 30.6839 31.8999 30.731 32.112C30.8016 32.3242 30.8957 32.5127 31.037 32.6777C31.1783 32.8427 31.343 32.9606 31.555 33.0549C31.7433 33.1491 31.9551 33.1963 32.167 33.1963C32.379 33.1963 32.5908 33.1491 32.7791 33.0549C32.9675 32.9606 33.1558 32.8427 33.297 32.6777C33.4383 32.5127 33.5561 32.3242 33.6031 32.1356C33.6737 31.9235 33.6973 31.7113 33.6503 31.4991L33.6737 23.8857C35.7455 23.1314 37.935 22.7778 40.1479 22.7778C44.2208 22.7778 48.1759 24.1214 51.4012 26.5728C51.6366 26.7613 51.6602 27.0913 51.4483 27.3035L42.6434 35.3884C41.843 35.0584 40.9719 34.8698 40.1009 34.8698C39.1356 34.8698 38.1703 35.0584 37.2757 35.4591C36.3811 35.8598 35.6043 36.4491 34.9686 37.1798C34.333 37.9105 33.8621 38.7827 33.5796 39.702C33.297 40.6448 33.2264 41.6112 33.3677 42.5777C33.509 43.5441 33.8385 44.4634 34.3565 45.2884C34.8744 46.1133 35.5807 46.7969 36.3811 47.339C37.2051 47.8577 38.1233 48.2112 39.0885 48.3526C40.0537 48.4941 41.0425 48.4233 41.9607 48.1404L53.214 56.6969C53.3317 56.7911 53.4023 56.9325 53.4023 57.074L53.3788 60.0911C53.3788 60.3504 53.1669 60.5625 52.9079 60.5625L40.0067 60.5154ZM42.7611 41.6584C42.7611 42.177 42.5963 42.6955 42.3138 43.1434C42.0077 43.5912 41.6076 43.9212 41.1131 44.1334C40.6188 44.3455 40.0773 44.3926 39.5829 44.2748C39.0885 44.157 38.5941 43.9212 38.2175 43.5441C37.8408 43.167 37.5818 42.6955 37.4877 42.177C37.3935 41.6584 37.4405 41.1163 37.6524 40.6448C37.8643 40.1498 38.1939 39.7491 38.6412 39.4427C39.0885 39.1598 39.6064 38.9948 40.1243 38.9948C40.8307 38.9948 41.5134 39.2777 42.0077 39.7963C42.4786 40.2677 42.7611 40.9277 42.7611 41.6584Z" fill="#0E0333"/>
</svg>
