<svg width="500" height="500" viewBox="0 0 500 500" fill="none" xmlns="http://www.w3.org/2000/svg">
<circle cx="250" cy="250" r="250" fill="black"/>
<path fill-rule="evenodd" clip-rule="evenodd" d="M235.391 407.687C241.521 418.499 257.099 418.499 263.228 407.687L275.385 386.244H223.234L235.391 407.687ZM213.981 369.923L195.476 337.282H303.143L284.638 369.923H213.981ZM186.223 320.961H312.396L330.901 288.32H167.718L186.223 320.961ZM158.465 271.999L139.96 239.358H358.659L340.154 271.999H158.465ZM130.707 223.037H367.912L389.782 184.461H108.837L130.707 223.037ZM99.5847 168.14L88.1049 147.891C82.0579 137.225 89.7626 124 102.024 124H396.596C408.857 124 416.561 137.225 410.514 147.891L399.035 168.14H99.5847Z" fill="url(#paint0_linear)"/>
<path fill-rule="evenodd" clip-rule="evenodd" d="M250 138H459L41 138V138H250ZM286 215.2C278.6 199 268.6 185.4 261.2 181.6C257 179.5 243.2 176.3 223.5 173.1C207.6 170.5 118 159.3 111 159.1C108 159 104.8 158.8 104 158.6C103.2 158.4 100.5 158.6 98 159.1C81.7 161.9 80.6 162.9 81.3 175C81.6 179.8 82.3 183.6 82.9 183.8C83.5 184 84 185 84 186.1C84 187.1 84.5 188 85 188C85.6 188 86 188.7 86 189.5C86 190.3 86.4 191 86.8 191C87.3 191 88.2 192.6 89 194.5C89.8 196.4 90.7 198 91.2 198C91.6 198 92 198.7 92 199.5C92 200.3 92.5 201 93 201C93.6 201 94 201.7 94 202.5C94 203.3 94.5 204 95 204C95.6 204 96 204.7 96 205.5C96 206.3 96.3 207 96.8 207C97.2 207 98.4 208.7 99.5 210.7C100.6 212.8 102.3 215.2 103.2 216.1C104.2 217 105 218 105 218.2C105 219.6 115 229 118.5 230.8C123.4 233.4 134.2 237 137 237C140.2 237 139.3 238.3 134 241.3C131.3 242.8 128.5 245.1 127.9 246.2C126.5 248.8 127.3 261.7 128.9 263.3C129.5 263.9 130 265.4 130 266.7C130 268 130.5 269 131 269C131.6 269 132 270.3 132 272C132 273.6 132.4 275 132.9 275C133.4 275 134.1 277.3 134.5 280C134.9 282.8 135.6 285 136.1 285C136.6 285 137 286.1 137 287.5C137 288.9 137.4 290 137.9 290C138.4 290 139.1 291.3 139.5 293C139.9 294.6 140.6 296 141.1 296C141.6 296 142 296.5 142 297C142 298.8 150 305.8 154.4 307.8C165.3 313 192.7 314.1 221.7 310.5C248.7 307.2 272.8 303.9 280.5 302.4C296.8 299.1 307.8 292.7 309.7 285.2C310.8 280.6 306.6 262.7 302.1 253.6C299.9 249.2 297.2 244.5 296 243.2C293.7 240.7 287.9 237.6 283.7 236.6L280.8 235.9L283.7 233.7C290.1 228.8 290.5 225.3 286 215.2ZM402.5 215.6C398.2 204.9 394.7 199.8 389.9 197.1C384.8 194.2 371.5 191.6 343.1 188.1C312.2 184.1 308.2 184.2 302.6 188.9C298.8 192 301.7 203.5 311 222.5C315.3 231.4 318.6 235.1 324.3 237.5L328.1 239.1L325.6 242.1C322.2 246.1 322.3 250.2 325.8 265.6C329.4 280.9 331.9 285.6 338.5 288.9C343.2 291.4 344.2 291.5 359 291.4C376.8 291.4 400.4 288.2 408.2 284.8C410.9 283.7 414.2 281.3 415.6 279.6C418.1 276.7 418.2 276.1 417.7 268.5C416.8 254.2 411.7 242.1 405.3 238.9L402.1 237.3L404.3 235.1C407.4 232 406.9 226.4 402.5 215.6ZM171.2 203.6C168.6 198.7 169.2 197.3 174.3 196.2C184.9 194.1 220.6 197.8 227.3 201.7C230.4 203.6 235.4 210.1 236.4 213.6C236.9 215.2 236.6 215.9 235.3 216.2C233 216.7 187 214.5 185 213.7C184.2 213.4 182.3 212.9 180.8 212.6C177.3 211.8 173.8 208.5 171.2 203.6ZM257.325 262.857C256.589 261.927 255.469 260.512 254.4 259.3C252.9 257.3 250.4 255.7 248.2 255.1C244 254.1 228.3 253.3 219.5 253.7C204.8 254.4 200 256.6 200 262.9C200 264.6 200.4 266 200.9 266C201.4 266 202.1 267.5 202.4 269.4C202.8 271.3 204.5 274.5 206.3 276.5C209.3 279.9 210.3 280.3 216.2 280.9C223.5 281.7 254.4 279.6 258.4 278C260.5 277.2 261 276.4 261 273.6C261 270 259.7 265.8 258 263.7C257.857 263.528 257.623 263.232 257.326 262.858L257.325 262.857ZM349.6 221C345.4 219.5 342.2 210.9 345.3 209.7C348.8 208.2 368.2 210 372.2 212.1C374 213.1 376.2 216.7 377.5 220.9L378.2 223.3L365.2 222.7C358 222.3 351 221.6 349.6 221ZM389.5 268.4C392.5 267.2 389 254.2 385.2 252.1C382.3 250.6 367.1 249.9 363.3 251C361.1 251.7 359.8 252.9 359.4 254.5C358.5 258 361.9 267.9 364.3 269.2C366.4 270.3 386.2 269.6 389.5 268.4Z" fill="white"/>
<g filter="url(#filter0_d)">
<path fill-rule="evenodd" clip-rule="evenodd" d="M237.669 350.698C197.152 358.408 160.724 371.407 139.657 380.986C137.646 381.901 135.274 381.012 134.36 379.001C133.445 376.99 134.334 374.618 136.345 373.704C157.952 363.88 194.988 350.677 236.173 342.839C277.293 335.015 323.012 332.448 361.729 344.333C363.841 344.982 365.028 347.219 364.379 349.331C363.731 351.443 361.493 352.629 359.382 351.981C322.472 340.65 278.251 342.976 237.669 350.698Z" fill="#8720D2"/>
</g>
<g filter="url(#filter1_d)">
<mask id="path-5-outside-1" maskUnits="userSpaceOnUse" x="142.223" y="234.558" width="205" height="149" fill="black">
<rect fill="white" x="142.223" y="234.558" width="205" height="149"/>
<path d="M150.588 338.815C148.972 338.951 147.554 338.384 146.335 337.116C145.115 335.849 144.42 334.194 144.249 332.153C144.071 330.027 144.793 327.398 146.414 324.265C148.035 321.132 150.057 318.18 152.48 315.408C157.657 309.75 162.297 305.337 166.399 302.167L169.045 300.019C170.355 299.309 171.733 298.894 173.179 298.773C174.71 298.645 176.113 299.041 177.389 299.962C178.658 300.797 179.346 301.853 179.453 303.129C179.559 304.404 179.443 305.57 179.103 306.626C178.764 307.682 178.364 308.529 177.903 309.167C176.707 311.237 175.995 312.452 175.768 312.814C175.535 313.09 175.432 313.399 175.461 313.739C175.482 313.994 175.663 314.107 176.003 314.079C176.428 314.043 178.11 312.661 181.05 309.931C189.763 301.494 196.16 297.104 200.242 296.762C201.857 296.627 203.261 297.023 204.452 297.951C205.72 298.787 206.405 299.8 206.505 300.99C206.604 302.181 206.438 303.265 206.006 304.243C205.567 305.136 204.927 306.175 204.084 307.359C202.703 309.273 202.03 310.442 202.066 310.867C202.094 311.208 202.406 311.353 203.001 311.303C203.682 311.246 206.281 309.058 210.801 304.741C215.32 300.423 218.515 298.186 220.386 298.029C222.257 297.872 223.766 298.516 224.915 299.961C226.141 301.314 226.819 302.756 226.947 304.287C227.075 305.818 225.203 309.528 221.329 315.419C217.448 321.224 215.54 324.51 215.604 325.275C215.668 326.041 215.998 326.398 216.593 326.348C217.096 326.221 217.67 325.916 218.315 325.434C218.959 324.951 219.579 324.685 220.175 324.635C221.28 324.543 221.872 324.964 221.95 325.9C222.185 328.706 220.819 331.304 217.851 333.693C214.875 335.998 211.772 337.285 208.541 337.556C201.738 338.126 198.087 335.435 197.588 329.482C197.489 328.292 197.704 326.775 198.235 324.932C198.85 323.083 199.509 321.743 200.21 320.913C200.422 320.382 200.521 320.031 200.507 319.861C200.486 319.606 200.305 319.493 199.965 319.521C199.71 319.542 199.38 319.698 198.977 319.989C198.566 320.195 196.866 321.879 193.877 325.041C185.696 333.69 179.947 338.154 176.63 338.431C174.845 338.581 173.431 338.057 172.388 336.86C171.339 335.578 170.754 334.214 170.633 332.768C170.412 330.132 171.445 327.134 173.732 323.774C173.952 323.328 174.047 322.934 174.019 322.594C173.983 322.169 173.795 321.971 173.455 321.999C173.115 322.028 172.747 322.23 172.35 322.606C161.413 333.113 154.159 338.516 150.588 338.815Z"/>
<path d="M202.517 372.87C202.175 368.789 203.728 362.793 207.176 354.882C210.538 346.979 214.733 338.793 219.761 330.322C230.595 312.459 240.078 297.877 248.208 286.578L253.615 279.06C254.791 277.763 256.016 277.061 257.292 276.954C258.567 276.847 259.542 277.236 260.216 278.122C260.889 279.007 261.258 279.833 261.322 280.598C261.379 281.278 261.001 282.894 260.187 285.446C259.458 287.99 258.549 290.935 257.459 294.28C256.362 297.541 255.743 299.348 255.601 299.702C255.538 299.965 255.52 300.266 255.549 300.606C255.577 300.946 255.847 301.095 256.357 301.052C256.952 301.002 258.234 299.953 260.203 297.904C266.281 291.743 270.978 288.523 274.294 288.245C280.332 287.74 283.607 290.548 284.12 296.67C283.958 299.852 282.387 304.094 279.406 309.397C276.425 314.699 272.515 319.65 267.677 324.252C262.917 328.761 258.369 331.197 254.032 331.561C252.161 331.717 250.506 331.385 249.067 330.564C247.629 329.742 246.53 328.892 245.771 328.014C245.012 327.136 244.506 326.707 244.25 326.728C244.08 326.743 243.843 326.977 243.539 327.43C243.319 327.877 236.211 342.174 222.213 370.321C218.524 377.395 214.639 381.103 210.557 381.445C208.432 381.623 206.606 380.791 205.082 378.949C203.565 377.193 202.71 375.166 202.517 372.87ZM268.898 297.432C266.772 297.61 262.543 301.304 256.211 308.514C249.964 315.717 246.912 320.169 247.054 321.869C247.069 322.039 247.246 322.11 247.586 322.082C250.817 321.811 255.411 318.386 261.368 311.807C267.318 305.143 270.189 300.578 269.983 298.112C269.94 297.602 269.579 297.375 268.898 297.432Z"/>
<path d="M339.581 317.585C336.797 320.13 333.368 322.644 329.295 325.126C325.306 327.601 321.866 328.96 318.975 329.202C316.169 329.437 313.844 328.775 312.001 327.217C310.158 325.659 309.133 323.647 308.926 321.181C308.584 317.099 311.058 311.369 316.348 303.989C316.816 303.436 317.039 303.032 317.018 302.777C316.989 302.437 316.89 302.274 316.72 302.288C316.55 302.302 315.93 302.568 314.86 303.086C313.868 303.512 311.141 305.71 306.678 309.68C302.208 313.566 297.887 317.696 293.715 322.07C289.536 326.359 286.469 328.586 284.513 328.75C282.642 328.906 281.171 328.216 280.1 326.679C279.115 325.134 278.536 323.342 278.365 321.301C277.838 315.008 281.926 305.032 290.629 291.372C299.417 277.706 308.748 265.406 318.622 254.474C328.489 243.457 334.91 237.824 337.886 237.575C339.332 237.454 340.746 237.977 342.128 239.146C343.589 240.223 344.408 241.824 344.586 243.95C344.757 245.99 342.591 250.796 338.087 258.367C333.583 265.937 328.517 273.94 322.887 282.376C315.805 292.902 312.3 298.591 312.371 299.441C312.399 299.781 312.584 299.937 312.924 299.909C313.264 299.88 314.653 299.079 317.09 297.504C319.52 295.845 322.173 294.296 325.049 292.856C327.919 291.331 329.899 290.437 330.99 290.174C332.159 289.819 333.509 289.578 335.04 289.45C336.655 289.314 338.257 289.523 339.845 290.075C341.517 290.619 342.411 291.572 342.525 292.933C342.632 294.208 339.881 298.678 334.271 306.341C328.74 313.912 326.017 318.207 326.103 319.228C326.181 320.163 326.646 320.595 327.496 320.524C329.282 320.374 332.611 318.211 337.485 314.035C339.327 312.511 340.411 311.649 340.737 311.451C341.063 311.252 341.438 311.135 341.863 311.099C343.054 311 343.699 311.545 343.799 312.736C343.856 313.416 342.45 315.032 339.581 317.585Z"/>
</mask>
<path d="M150.588 338.815C148.972 338.951 147.554 338.384 146.335 337.116C145.115 335.849 144.42 334.194 144.249 332.153C144.071 330.027 144.793 327.398 146.414 324.265C148.035 321.132 150.057 318.18 152.48 315.408C157.657 309.75 162.297 305.337 166.399 302.167L169.045 300.019C170.355 299.309 171.733 298.894 173.179 298.773C174.71 298.645 176.113 299.041 177.389 299.962C178.658 300.797 179.346 301.853 179.453 303.129C179.559 304.404 179.443 305.57 179.103 306.626C178.764 307.682 178.364 308.529 177.903 309.167C176.707 311.237 175.995 312.452 175.768 312.814C175.535 313.09 175.432 313.399 175.461 313.739C175.482 313.994 175.663 314.107 176.003 314.079C176.428 314.043 178.11 312.661 181.05 309.931C189.763 301.494 196.16 297.104 200.242 296.762C201.857 296.627 203.261 297.023 204.452 297.951C205.72 298.787 206.405 299.8 206.505 300.99C206.604 302.181 206.438 303.265 206.006 304.243C205.567 305.136 204.927 306.175 204.084 307.359C202.703 309.273 202.03 310.442 202.066 310.867C202.094 311.208 202.406 311.353 203.001 311.303C203.682 311.246 206.281 309.058 210.801 304.741C215.32 300.423 218.515 298.186 220.386 298.029C222.257 297.872 223.766 298.516 224.915 299.961C226.141 301.314 226.819 302.756 226.947 304.287C227.075 305.818 225.203 309.528 221.329 315.419C217.448 321.224 215.54 324.51 215.604 325.275C215.668 326.041 215.998 326.398 216.593 326.348C217.096 326.221 217.67 325.916 218.315 325.434C218.959 324.951 219.579 324.685 220.175 324.635C221.28 324.543 221.872 324.964 221.95 325.9C222.185 328.706 220.819 331.304 217.851 333.693C214.875 335.998 211.772 337.285 208.541 337.556C201.738 338.126 198.087 335.435 197.588 329.482C197.489 328.292 197.704 326.775 198.235 324.932C198.85 323.083 199.509 321.743 200.21 320.913C200.422 320.382 200.521 320.031 200.507 319.861C200.486 319.606 200.305 319.493 199.965 319.521C199.71 319.542 199.38 319.698 198.977 319.989C198.566 320.195 196.866 321.879 193.877 325.041C185.696 333.69 179.947 338.154 176.63 338.431C174.845 338.581 173.431 338.057 172.388 336.86C171.339 335.578 170.754 334.214 170.633 332.768C170.412 330.132 171.445 327.134 173.732 323.774C173.952 323.328 174.047 322.934 174.019 322.594C173.983 322.169 173.795 321.971 173.455 321.999C173.115 322.028 172.747 322.23 172.35 322.606C161.413 333.113 154.159 338.516 150.588 338.815Z" fill="url(#paint1_linear)"/>
<path d="M202.517 372.87C202.175 368.789 203.728 362.793 207.176 354.882C210.538 346.979 214.733 338.793 219.761 330.322C230.595 312.459 240.078 297.877 248.208 286.578L253.615 279.06C254.791 277.763 256.016 277.061 257.292 276.954C258.567 276.847 259.542 277.236 260.216 278.122C260.889 279.007 261.258 279.833 261.322 280.598C261.379 281.278 261.001 282.894 260.187 285.446C259.458 287.99 258.549 290.935 257.459 294.28C256.362 297.541 255.743 299.348 255.601 299.702C255.538 299.965 255.52 300.266 255.549 300.606C255.577 300.946 255.847 301.095 256.357 301.052C256.952 301.002 258.234 299.953 260.203 297.904C266.281 291.743 270.978 288.523 274.294 288.245C280.332 287.74 283.607 290.548 284.12 296.67C283.958 299.852 282.387 304.094 279.406 309.397C276.425 314.699 272.515 319.65 267.677 324.252C262.917 328.761 258.369 331.197 254.032 331.561C252.161 331.717 250.506 331.385 249.067 330.564C247.629 329.742 246.53 328.892 245.771 328.014C245.012 327.136 244.506 326.707 244.25 326.728C244.08 326.743 243.843 326.977 243.539 327.43C243.319 327.877 236.211 342.174 222.213 370.321C218.524 377.395 214.639 381.103 210.557 381.445C208.432 381.623 206.606 380.791 205.082 378.949C203.565 377.193 202.71 375.166 202.517 372.87ZM268.898 297.432C266.772 297.61 262.543 301.304 256.211 308.514C249.964 315.717 246.912 320.169 247.054 321.869C247.069 322.039 247.246 322.11 247.586 322.082C250.817 321.811 255.411 318.386 261.368 311.807C267.318 305.143 270.189 300.578 269.983 298.112C269.94 297.602 269.579 297.375 268.898 297.432Z" fill="url(#paint2_linear)"/>
<path d="M339.581 317.585C336.797 320.13 333.368 322.644 329.295 325.126C325.306 327.601 321.866 328.96 318.975 329.202C316.169 329.437 313.844 328.775 312.001 327.217C310.158 325.659 309.133 323.647 308.926 321.181C308.584 317.099 311.058 311.369 316.348 303.989C316.816 303.436 317.039 303.032 317.018 302.777C316.989 302.437 316.89 302.274 316.72 302.288C316.55 302.302 315.93 302.568 314.86 303.086C313.868 303.512 311.141 305.71 306.678 309.68C302.208 313.566 297.887 317.696 293.715 322.07C289.536 326.359 286.469 328.586 284.513 328.75C282.642 328.906 281.171 328.216 280.1 326.679C279.115 325.134 278.536 323.342 278.365 321.301C277.838 315.008 281.926 305.032 290.629 291.372C299.417 277.706 308.748 265.406 318.622 254.474C328.489 243.457 334.91 237.824 337.886 237.575C339.332 237.454 340.746 237.977 342.128 239.146C343.589 240.223 344.408 241.824 344.586 243.95C344.757 245.99 342.591 250.796 338.087 258.367C333.583 265.937 328.517 273.94 322.887 282.376C315.805 292.902 312.3 298.591 312.371 299.441C312.399 299.781 312.584 299.937 312.924 299.909C313.264 299.88 314.653 299.079 317.09 297.504C319.52 295.845 322.173 294.296 325.049 292.856C327.919 291.331 329.899 290.437 330.99 290.174C332.159 289.819 333.509 289.578 335.04 289.45C336.655 289.314 338.257 289.523 339.845 290.075C341.517 290.619 342.411 291.572 342.525 292.933C342.632 294.208 339.881 298.678 334.271 306.341C328.74 313.912 326.017 318.207 326.103 319.228C326.181 320.163 326.646 320.595 327.496 320.524C329.282 320.374 332.611 318.211 337.485 314.035C339.327 312.511 340.411 311.649 340.737 311.451C341.063 311.252 341.438 311.135 341.863 311.099C343.054 311 343.699 311.545 343.799 312.736C343.856 313.416 342.45 315.032 339.581 317.585Z" fill="url(#paint3_linear)"/>
<path d="M150.588 338.815C148.972 338.951 147.554 338.384 146.335 337.116C145.115 335.849 144.42 334.194 144.249 332.153C144.071 330.027 144.793 327.398 146.414 324.265C148.035 321.132 150.057 318.18 152.48 315.408C157.657 309.75 162.297 305.337 166.399 302.167L169.045 300.019C170.355 299.309 171.733 298.894 173.179 298.773C174.71 298.645 176.113 299.041 177.389 299.962C178.658 300.797 179.346 301.853 179.453 303.129C179.559 304.404 179.443 305.57 179.103 306.626C178.764 307.682 178.364 308.529 177.903 309.167C176.707 311.237 175.995 312.452 175.768 312.814C175.535 313.09 175.432 313.399 175.461 313.739C175.482 313.994 175.663 314.107 176.003 314.079C176.428 314.043 178.11 312.661 181.05 309.931C189.763 301.494 196.16 297.104 200.242 296.762C201.857 296.627 203.261 297.023 204.452 297.951C205.72 298.787 206.405 299.8 206.505 300.99C206.604 302.181 206.438 303.265 206.006 304.243C205.567 305.136 204.927 306.175 204.084 307.359C202.703 309.273 202.03 310.442 202.066 310.867C202.094 311.208 202.406 311.353 203.001 311.303C203.682 311.246 206.281 309.058 210.801 304.741C215.32 300.423 218.515 298.186 220.386 298.029C222.257 297.872 223.766 298.516 224.915 299.961C226.141 301.314 226.819 302.756 226.947 304.287C227.075 305.818 225.203 309.528 221.329 315.419C217.448 321.224 215.54 324.51 215.604 325.275C215.668 326.041 215.998 326.398 216.593 326.348C217.096 326.221 217.67 325.916 218.315 325.434C218.959 324.951 219.579 324.685 220.175 324.635C221.28 324.543 221.872 324.964 221.95 325.9C222.185 328.706 220.819 331.304 217.851 333.693C214.875 335.998 211.772 337.285 208.541 337.556C201.738 338.126 198.087 335.435 197.588 329.482C197.489 328.292 197.704 326.775 198.235 324.932C198.85 323.083 199.509 321.743 200.21 320.913C200.422 320.382 200.521 320.031 200.507 319.861C200.486 319.606 200.305 319.493 199.965 319.521C199.71 319.542 199.38 319.698 198.977 319.989C198.566 320.195 196.866 321.879 193.877 325.041C185.696 333.69 179.947 338.154 176.63 338.431C174.845 338.581 173.431 338.057 172.388 336.86C171.339 335.578 170.754 334.214 170.633 332.768C170.412 330.132 171.445 327.134 173.732 323.774C173.952 323.328 174.047 322.934 174.019 322.594C173.983 322.169 173.795 321.971 173.455 321.999C173.115 322.028 172.747 322.23 172.35 322.606C161.413 333.113 154.159 338.516 150.588 338.815Z" stroke="url(#paint4_linear)" stroke-width="4" mask="url(#path-5-outside-1)"/>
<path d="M202.517 372.87C202.175 368.789 203.728 362.793 207.176 354.882C210.538 346.979 214.733 338.793 219.761 330.322C230.595 312.459 240.078 297.877 248.208 286.578L253.615 279.06C254.791 277.763 256.016 277.061 257.292 276.954C258.567 276.847 259.542 277.236 260.216 278.122C260.889 279.007 261.258 279.833 261.322 280.598C261.379 281.278 261.001 282.894 260.187 285.446C259.458 287.99 258.549 290.935 257.459 294.28C256.362 297.541 255.743 299.348 255.601 299.702C255.538 299.965 255.52 300.266 255.549 300.606C255.577 300.946 255.847 301.095 256.357 301.052C256.952 301.002 258.234 299.953 260.203 297.904C266.281 291.743 270.978 288.523 274.294 288.245C280.332 287.74 283.607 290.548 284.12 296.67C283.958 299.852 282.387 304.094 279.406 309.397C276.425 314.699 272.515 319.65 267.677 324.252C262.917 328.761 258.369 331.197 254.032 331.561C252.161 331.717 250.506 331.385 249.067 330.564C247.629 329.742 246.53 328.892 245.771 328.014C245.012 327.136 244.506 326.707 244.25 326.728C244.08 326.743 243.843 326.977 243.539 327.43C243.319 327.877 236.211 342.174 222.213 370.321C218.524 377.395 214.639 381.103 210.557 381.445C208.432 381.623 206.606 380.791 205.082 378.949C203.565 377.193 202.71 375.166 202.517 372.87ZM268.898 297.432C266.772 297.61 262.543 301.304 256.211 308.514C249.964 315.717 246.912 320.169 247.054 321.869C247.069 322.039 247.246 322.11 247.586 322.082C250.817 321.811 255.411 318.386 261.368 311.807C267.318 305.143 270.189 300.578 269.983 298.112C269.94 297.602 269.579 297.375 268.898 297.432Z" stroke="url(#paint5_linear)" stroke-width="4" mask="url(#path-5-outside-1)"/>
<path d="M339.581 317.585C336.797 320.13 333.368 322.644 329.295 325.126C325.306 327.601 321.866 328.96 318.975 329.202C316.169 329.437 313.844 328.775 312.001 327.217C310.158 325.659 309.133 323.647 308.926 321.181C308.584 317.099 311.058 311.369 316.348 303.989C316.816 303.436 317.039 303.032 317.018 302.777C316.989 302.437 316.89 302.274 316.72 302.288C316.55 302.302 315.93 302.568 314.86 303.086C313.868 303.512 311.141 305.71 306.678 309.68C302.208 313.566 297.887 317.696 293.715 322.07C289.536 326.359 286.469 328.586 284.513 328.75C282.642 328.906 281.171 328.216 280.1 326.679C279.115 325.134 278.536 323.342 278.365 321.301C277.838 315.008 281.926 305.032 290.629 291.372C299.417 277.706 308.748 265.406 318.622 254.474C328.489 243.457 334.91 237.824 337.886 237.575C339.332 237.454 340.746 237.977 342.128 239.146C343.589 240.223 344.408 241.824 344.586 243.95C344.757 245.99 342.591 250.796 338.087 258.367C333.583 265.937 328.517 273.94 322.887 282.376C315.805 292.902 312.3 298.591 312.371 299.441C312.399 299.781 312.584 299.937 312.924 299.909C313.264 299.88 314.653 299.079 317.09 297.504C319.52 295.845 322.173 294.296 325.049 292.856C327.919 291.331 329.899 290.437 330.99 290.174C332.159 289.819 333.509 289.578 335.04 289.45C336.655 289.314 338.257 289.523 339.845 290.075C341.517 290.619 342.411 291.572 342.525 292.933C342.632 294.208 339.881 298.678 334.271 306.341C328.74 313.912 326.017 318.207 326.103 319.228C326.181 320.163 326.646 320.595 327.496 320.524C329.282 320.374 332.611 318.211 337.485 314.035C339.327 312.511 340.411 311.649 340.737 311.451C341.063 311.252 341.438 311.135 341.863 311.099C343.054 311 343.699 311.545 343.799 312.736C343.856 313.416 342.45 315.032 339.581 317.585Z" stroke="url(#paint6_linear)" stroke-width="4" mask="url(#path-5-outside-1)"/>
</g>
<defs>
<filter id="filter0_d" x="130" y="336.189" width="238.557" height="53.1565" filterUnits="userSpaceOnUse" color-interpolation-filters="sRGB">
<feFlood flood-opacity="0" result="BackgroundImageFix"/>
<feColorMatrix in="SourceAlpha" type="matrix" values="0 0 0 0 0 0 0 0 0 0 0 0 0 0 0 0 0 0 127 0"/>
<feOffset dy="4"/>
<feGaussianBlur stdDeviation="2"/>
<feColorMatrix type="matrix" values="0 0 0 0 0.898039 0 0 0 0 0.129412 0 0 0 0 0.615686 0 0 0 0.5 0"/>
<feBlend mode="normal" in2="BackgroundImageFix" result="effect1_dropShadow"/>
<feBlend mode="normal" in="SourceGraphic" in2="effect1_dropShadow" result="shape"/>
</filter>
<filter id="filter1_d" x="130.223" y="227.557" width="228.373" height="171.911" filterUnits="userSpaceOnUse" color-interpolation-filters="sRGB">
<feFlood flood-opacity="0" result="BackgroundImageFix"/>
<feColorMatrix in="SourceAlpha" type="matrix" values="0 0 0 0 0 0 0 0 0 0 0 0 0 0 0 0 0 0 127 0"/>
<feOffset dy="4"/>
<feGaussianBlur stdDeviation="6"/>
<feColorMatrix type="matrix" values="0 0 0 0 0.898039 0 0 0 0 0.129412 0 0 0 0 0.615686 0 0 0 0.5 0"/>
<feBlend mode="normal" in2="BackgroundImageFix" result="effect1_dropShadow"/>
<feBlend mode="normal" in="SourceGraphic" in2="effect1_dropShadow" result="shape"/>
</filter>
<linearGradient id="paint0_linear" x1="249.31" y1="415.796" x2="249.31" y2="125.053" gradientUnits="userSpaceOnUse">
<stop stop-color="#FFE600"/>
<stop offset="0.307292" stop-color="#FAAD14"/>
<stop offset="0.671875" stop-color="#F7169C"/>
<stop offset="1" stop-color="#3435F5"/>
</linearGradient>
<linearGradient id="paint1_linear" x1="252.503" y1="264" x2="289.003" y2="389.5" gradientUnits="userSpaceOnUse">
<stop offset="0.223958" stop-color="#FF009D"/>
<stop offset="0.880208" stop-color="#3435F5"/>
</linearGradient>
<linearGradient id="paint2_linear" x1="252.503" y1="264" x2="289.003" y2="389.5" gradientUnits="userSpaceOnUse">
<stop offset="0.223958" stop-color="#FF009D"/>
<stop offset="0.880208" stop-color="#3435F5"/>
</linearGradient>
<linearGradient id="paint3_linear" x1="252.503" y1="264" x2="289.003" y2="389.5" gradientUnits="userSpaceOnUse">
<stop offset="0.223958" stop-color="#FF009D"/>
<stop offset="0.880208" stop-color="#3435F5"/>
</linearGradient>
<linearGradient id="paint4_linear" x1="235.811" y1="278.629" x2="238.9" y2="373" gradientUnits="userSpaceOnUse">
<stop stop-color="white"/>
<stop offset="1" stop-color="#F7169C"/>
</linearGradient>
<linearGradient id="paint5_linear" x1="235.811" y1="278.629" x2="238.9" y2="373" gradientUnits="userSpaceOnUse">
<stop stop-color="white"/>
<stop offset="1" stop-color="#F7169C"/>
</linearGradient>
<linearGradient id="paint6_linear" x1="235.811" y1="278.629" x2="238.9" y2="373" gradientUnits="userSpaceOnUse">
<stop stop-color="white"/>
<stop offset="1" stop-color="#F7169C"/>
</linearGradient>
</defs>
</svg>
