<svg id="Layer_1" data-name="Layer 1" xmlns="http://www.w3.org/2000/svg" xmlns:xlink="http://www.w3.org/1999/xlink" viewBox="0 0 700 200"><defs><style>.cls-1{fill:url(#linear-gradient);}.cls-2{fill:url(#linear-gradient-2);}.cls-3{fill:url(#linear-gradient-3);}.cls-4{fill:url(#linear-gradient-4);}.cls-5{fill:url(#linear-gradient-5);}.cls-6{fill:url(#linear-gradient-6);}.cls-7{fill:url(#linear-gradient-7);}.cls-8{fill:url(#linear-gradient-8);}.cls-9{fill:url(#linear-gradient-9);}.cls-10{fill:url(#linear-gradient-10);}.cls-11{fill:url(#linear-gradient-11);}.cls-12{fill:url(#linear-gradient-12);}.cls-13{fill:url(#linear-gradient-13);}.cls-14{fill:url(#linear-gradient-14);}.cls-15{fill:url(#linear-gradient-15);}.cls-16{fill:url(#linear-gradient-16);}.cls-17{fill:url(#linear-gradient-17);}.cls-18{fill:url(#linear-gradient-18);}.cls-19{fill:url(#linear-gradient-19);}.cls-20{fill:url(#linear-gradient-20);}.cls-21{fill:url(#linear-gradient-21);}.cls-22{fill:url(#linear-gradient-22);}.cls-23{fill:url(#linear-gradient-23);}.cls-24{fill:url(#linear-gradient-24);}.cls-25{fill:url(#linear-gradient-25);}.cls-26{fill:url(#linear-gradient-26);}.cls-27{fill:url(#linear-gradient-27);}.cls-28{fill:url(#linear-gradient-28);}.cls-29{fill:url(#linear-gradient-29);}.cls-30{fill:url(#linear-gradient-30);}.cls-31{fill:url(#linear-gradient-31);}.cls-32{fill:url(#linear-gradient-32);}.cls-33{fill:url(#linear-gradient-33);}.cls-34{fill:url(#linear-gradient-34);}.cls-35{fill:url(#linear-gradient-35);}.cls-36{fill:url(#linear-gradient-36);}.cls-37{fill:url(#linear-gradient-37);}.cls-38{fill:url(#linear-gradient-38);}.cls-39{fill:url(#linear-gradient-39);}.cls-40{fill:url(#linear-gradient-40);}.cls-41{fill:url(#linear-gradient-41);}.cls-42{fill:url(#linear-gradient-42);}.cls-43{fill:url(#linear-gradient-43);}.cls-44{fill:url(#linear-gradient-44);}.cls-45{fill:url(#linear-gradient-45);}.cls-46{fill:url(#linear-gradient-46);}.cls-47{fill:url(#linear-gradient-47);}.cls-48{fill:url(#linear-gradient-48);}.cls-49{fill:#000030;}</style><linearGradient id="linear-gradient" x1="52.08" y1="121.15" x2="52.08" y2="90.69" gradientUnits="userSpaceOnUse"><stop offset="0" stop-color="#099b91"/><stop offset="0.17" stop-color="#0a9193"/><stop offset="0.46" stop-color="#0e7797"/><stop offset="0.83" stop-color="#144c9f"/><stop offset="1" stop-color="#1735a3"/></linearGradient><linearGradient id="linear-gradient-2" x1="88.67" y1="176.12" x2="88.67" y2="113.4" xlink:href="#linear-gradient"/><linearGradient id="linear-gradient-3" x1="57.31" y1="129" x2="57.31" y2="93.93" xlink:href="#linear-gradient"/><linearGradient id="linear-gradient-4" x1="67.76" y1="144.71" x2="67.76" y2="100.42" xlink:href="#linear-gradient"/><linearGradient id="linear-gradient-5" x1="72.99" y1="152.56" x2="72.99" y2="103.67" xlink:href="#linear-gradient"/><linearGradient id="linear-gradient-6" x1="83.44" y1="168.27" x2="83.44" y2="110.16" xlink:href="#linear-gradient"/><linearGradient id="linear-gradient-7" x1="78.21" y1="160.41" x2="78.21" y2="106.91" xlink:href="#linear-gradient"/><linearGradient id="linear-gradient-8" x1="62.53" y1="136.85" x2="62.53" y2="97.18" xlink:href="#linear-gradient"/><linearGradient id="linear-gradient-9" x1="25.95" y1="81.88" x2="25.95" y2="74.46" xlink:href="#linear-gradient"/><linearGradient id="linear-gradient-10" x1="31.17" y1="89.73" x2="31.17" y2="77.71" xlink:href="#linear-gradient"/><linearGradient id="linear-gradient-11" x1="21.08" y1="74.02" x2="21.08" y2="72" xlink:href="#linear-gradient"/><linearGradient id="linear-gradient-12" x1="41.63" y1="105.44" x2="41.63" y2="84.2" xlink:href="#linear-gradient"/><linearGradient id="linear-gradient-13" x1="36.4" y1="97.59" x2="36.4" y2="80.95" xlink:href="#linear-gradient"/><linearGradient id="linear-gradient-14" x1="46.85" y1="113.29" x2="46.85" y2="87.44" xlink:href="#linear-gradient"/><linearGradient id="linear-gradient-15" x1="174.54" y1="194.87" x2="174.54" y2="152.28" xlink:href="#linear-gradient"/><linearGradient id="linear-gradient-16" x1="150.55" y1="194.87" x2="150.55" y2="139.36" xlink:href="#linear-gradient"/><linearGradient id="linear-gradient-17" x1="179.93" y1="194.87" x2="179.93" y2="163.06" xlink:href="#linear-gradient"/><linearGradient id="linear-gradient-18" x1="159.71" y1="194.87" x2="159.71" y2="142.61" xlink:href="#linear-gradient"/><linearGradient id="linear-gradient-19" x1="168.86" y1="194.87" x2="168.86" y2="145.85" xlink:href="#linear-gradient"/><linearGradient id="linear-gradient-20" x1="190.7" y1="194.87" x2="190.7" y2="184.61" xlink:href="#linear-gradient"/><linearGradient id="linear-gradient-21" x1="185.31" y1="194.87" x2="185.31" y2="173.83" xlink:href="#linear-gradient"/><linearGradient id="linear-gradient-22" x1="123.09" y1="194.87" x2="123.09" y2="129.63" xlink:href="#linear-gradient"/><linearGradient id="linear-gradient-23" x1="141.4" y1="194.87" x2="141.4" y2="136.12" xlink:href="#linear-gradient"/><linearGradient id="linear-gradient-24" x1="104.79" y1="194.87" x2="104.79" y2="123.14" xlink:href="#linear-gradient"/><linearGradient id="linear-gradient-25" x1="99.12" y1="191.83" x2="99.12" y2="119.89" xlink:href="#linear-gradient"/><linearGradient id="linear-gradient-26" x1="113.94" y1="194.87" x2="113.94" y2="126.38" xlink:href="#linear-gradient"/><linearGradient id="linear-gradient-27" x1="132.25" y1="194.87" x2="132.25" y2="132.87" xlink:href="#linear-gradient"/><linearGradient id="linear-gradient-28" x1="93.89" y1="183.97" x2="93.89" y2="116.65" xlink:href="#linear-gradient"/><linearGradient id="linear-gradient-29" x1="104.23" y1="54.18" x2="99.12" y2="45.32" gradientUnits="userSpaceOnUse"><stop offset="0" stop-color="#099b91"/><stop offset="0.17" stop-color="#0c8495"/><stop offset="0.54" stop-color="#12599d"/><stop offset="0.83" stop-color="#163fa1"/><stop offset="1" stop-color="#1735a3"/></linearGradient><linearGradient id="linear-gradient-30" x1="114.87" y1="55.55" x2="107.92" y2="43.5" xlink:href="#linear-gradient-29"/><linearGradient id="linear-gradient-31" x1="77.11" y1="54.82" x2="75.82" y2="52.58" xlink:href="#linear-gradient-29"/><linearGradient id="linear-gradient-32" x1="90.56" y1="54.57" x2="87.28" y2="48.89" xlink:href="#linear-gradient-29"/><linearGradient id="linear-gradient-33" x1="118.33" y1="61.06" x2="112.37" y2="50.74" xlink:href="#linear-gradient-29"/><linearGradient id="linear-gradient-34" x1="121.49" y1="66.74" x2="116.94" y2="58.87" xlink:href="#linear-gradient-29"/><linearGradient id="linear-gradient-35" x1="126.38" y1="75.65" x2="126.09" y2="75.14" xlink:href="#linear-gradient-29"/><linearGradient id="linear-gradient-36" x1="124.64" y1="72.43" x2="121.52" y2="67.01" xlink:href="#linear-gradient-29"/><linearGradient id="linear-gradient-37" x1="176.47" y1="26.86" x2="170.2" y2="16.01" gradientUnits="userSpaceOnUse"><stop offset="0" stop-color="#0c8894"/><stop offset="0.06" stop-color="#0e7597"/><stop offset="0.17" stop-color="#125e9c"/><stop offset="0.29" stop-color="#144c9f"/><stop offset="0.43" stop-color="#163fa1"/><stop offset="0.61" stop-color="#1737a3"/><stop offset="1" stop-color="#1735a3"/></linearGradient><linearGradient id="linear-gradient-38" x1="181.7" y1="45.39" x2="172.48" y2="29.43" xlink:href="#linear-gradient-37"/><linearGradient id="linear-gradient-39" x1="181.7" y1="56.17" x2="172.48" y2="40.2" xlink:href="#linear-gradient-37"/><linearGradient id="linear-gradient-40" x1="182.06" y1="76.26" x2="173.38" y2="61.23" xlink:href="#linear-gradient-37"/><linearGradient id="linear-gradient-41" x1="165.53" y1="22.41" x2="162.64" y2="17.42" xlink:href="#linear-gradient-37"/><linearGradient id="linear-gradient-42" x1="181.7" y1="34.62" x2="172.48" y2="18.65" xlink:href="#linear-gradient-37"/><linearGradient id="linear-gradient-43" x1="191.21" y1="93.58" x2="186.74" y2="85.85" xlink:href="#linear-gradient-37"/><linearGradient id="linear-gradient-44" x1="181.7" y1="66.95" x2="172.48" y2="50.98" xlink:href="#linear-gradient-37"/><linearGradient id="linear-gradient-45" x1="195.91" y1="102.32" x2="195.82" y2="102.16" xlink:href="#linear-gradient-37"/><linearGradient id="linear-gradient-46" x1="194.34" y1="99.31" x2="191.28" y2="94.01" xlink:href="#linear-gradient-37"/><linearGradient id="linear-gradient-47" x1="188.07" y1="87.86" x2="182.21" y2="77.69" xlink:href="#linear-gradient-37"/><linearGradient id="linear-gradient-48" x1="184.94" y1="82.13" x2="177.67" y2="69.54" xlink:href="#linear-gradient-37"/></defs><polygon class="cls-1" points="67.23 92.31 63.47 90.69 36.93 117.22 38.39 121.15 67.23 92.31"/><polygon class="cls-2" points="119.94 115.02 116.18 113.4 57.39 172.19 58.85 176.12 119.94 115.02"/><polygon class="cls-3" points="74.76 95.55 71 93.93 39.85 125.07 41.31 129 74.76 95.55"/><polygon class="cls-4" points="89.82 102.04 86.06 100.42 45.7 140.78 47.16 144.71 89.82 102.04"/><polygon class="cls-5" points="97.35 105.29 93.59 103.67 48.62 148.63 50.08 152.56 97.35 105.29"/><polygon class="cls-6" points="112.41 111.78 108.65 110.16 54.47 164.34 55.93 168.27 112.41 111.78"/><polygon class="cls-7" points="104.88 108.53 101.12 106.91 51.54 156.49 53 160.41 104.88 108.53"/><polygon class="cls-8" points="82.29 98.8 78.53 97.18 42.78 132.93 44.24 136.85 82.29 98.8"/><polygon class="cls-9" points="29.58 76.08 25.81 74.46 22.32 77.95 23.78 81.88 29.58 76.08"/><polygon class="cls-10" points="37.11 79.33 33.34 77.71 25.24 85.81 26.7 89.73 37.11 79.33"/><polygon class="cls-11" points="20.11 72 20.86 74.03 22.05 72.84 20.11 72"/><polygon class="cls-12" points="52.17 85.82 48.4 84.2 31.09 101.51 32.55 105.44 52.17 85.82"/><polygon class="cls-13" points="44.64 82.57 40.87 80.95 28.16 93.66 29.63 97.58 44.64 82.57"/><polygon class="cls-14" points="59.7 89.06 55.93 87.44 34.01 109.36 35.47 113.29 59.7 89.06"/><polygon class="cls-15" points="195.83 157.67 195.83 152.28 153.24 194.87 158.63 194.87 195.83 157.67"/><polygon class="cls-16" points="180.19 140.98 176.43 139.36 120.92 194.87 126.31 194.87 180.19 140.98"/><polygon class="cls-17" points="195.83 168.44 195.83 163.06 164.02 194.87 169.41 194.87 195.83 168.44"/><polygon class="cls-18" points="187.72 144.23 183.96 142.6 131.69 194.87 137.08 194.87 187.72 144.23"/><polygon class="cls-19" points="195.25 147.47 191.49 145.85 142.47 194.87 147.86 194.87 195.25 147.47"/><polygon class="cls-20" points="195.83 189.99 195.83 184.61 185.57 194.87 190.96 194.87 195.83 189.99"/><polygon class="cls-21" points="195.83 179.22 195.83 173.83 174.79 194.87 180.18 194.87 195.83 179.22"/><polygon class="cls-22" points="157.6 131.25 153.83 129.63 88.59 194.87 93.98 194.87 157.6 131.25"/><polygon class="cls-23" points="172.66 137.74 168.9 136.12 110.14 194.87 115.53 194.87 172.66 137.74"/><polygon class="cls-24" points="142.54 124.76 138.77 123.14 67.04 194.87 72.43 194.87 142.54 124.76"/><polygon class="cls-25" points="135.01 121.51 131.24 119.89 63.23 187.9 64.69 191.83 135.01 121.51"/><polygon class="cls-26" points="150.07 128 146.3 126.38 77.81 194.87 83.2 194.87 150.07 128"/><polygon class="cls-27" points="165.13 134.49 161.36 132.87 99.36 194.87 104.75 194.87 165.13 134.49"/><polygon class="cls-28" points="127.48 118.27 123.71 116.65 60.31 180.05 61.77 183.97 127.48 118.27"/><polygon class="cls-29" points="115.19 37.67 106.3 41.17 87.24 60.24 91.1 61.76 115.19 37.67"/><polygon class="cls-30" points="126.37 37.27 126.37 33.27 124.08 34.17 94.97 63.28 98.83 64.81 126.37 37.27"/><polygon class="cls-31" points="72.56 54.46 75.64 55.67 79.64 51.67 72.56 54.46"/><polygon class="cls-32" points="97.42 44.67 88.53 48.17 79.5 57.2 83.37 58.72 97.42 44.67"/><polygon class="cls-33" points="126.37 48.04 126.37 42.65 102.7 66.33 106.56 67.85 126.37 48.04"/><polygon class="cls-34" points="126.37 58.82 126.37 53.43 110.43 69.37 114.3 70.89 126.37 58.82"/><polygon class="cls-35" points="126.37 74.98 125.89 75.46 126.37 75.65 126.37 74.98"/><polygon class="cls-36" points="126.37 69.59 126.37 64.2 118.16 72.42 122.03 73.94 126.37 69.59"/><polygon class="cls-37" points="189.03 6.61 179.78 10.48 158.28 31.98 158.28 37.37 189.03 6.61"/><polygon class="cls-38" points="195.9 21.29 195.9 15.91 158.28 53.53 158.28 58.92 195.9 21.29"/><polygon class="cls-39" points="195.9 32.07 195.9 26.68 158.28 64.3 158.28 69.69 195.9 32.07"/><polygon class="cls-40" points="195.9 48.23 158.28 85.86 158.28 87.08 161.24 88.28 195.9 53.62 195.9 48.23"/><polygon class="cls-41" points="170.53 14.34 161.28 18.21 158.28 21.2 158.28 26.59 170.53 14.34"/><polygon class="cls-42" points="195.9 10.52 195.9 5.13 158.28 42.75 158.28 48.14 195.9 10.52"/><polygon class="cls-43" points="195.9 85.95 195.9 80.56 180.42 96.05 184.25 97.6 195.9 85.95"/><polygon class="cls-44" points="195.9 42.85 195.9 37.46 158.28 75.08 158.28 80.47 195.9 42.85"/><polygon class="cls-45" points="195.9 102.11 195.75 102.26 195.9 102.32 195.9 102.11"/><polygon class="cls-46" points="195.9 96.72 195.9 91.34 188.09 99.15 191.92 100.71 195.9 96.72"/><polygon class="cls-47" points="195.9 75.17 195.9 69.78 172.75 92.94 176.58 94.49 195.9 75.17"/><polygon class="cls-48" points="195.9 64.4 195.9 59.01 165.08 89.83 168.91 91.39 195.9 64.4"/><path class="cls-49" d="M225.11,13.68H212.29V5.13h34.92v8.55H234.38V47.27h-9.27Z"/><path class="cls-49" d="M254.31,5.13h9.27V21.81h17.1V5.13H290V47.27h-9.27V30.36h-17.1V47.27h-9.27Z"/><path class="cls-49" d="M300.06,5.13h31.79v8.25H309.27v8.55h19.87v8.25H309.27V39h22.88v8.24H300.06Z"/><path class="cls-49" d="M240.45,66h13.61l28.76,67.58H267.38l-6.13-15.05H232.87l-6.13,15.05H211.69ZM256,105.46,247.06,83.7l-8.91,21.76Z"/><path class="cls-49" d="M293.17,66.45h30.67c8.54,0,15.15,2.39,19.56,6.8,3.74,3.74,5.75,9,5.75,15.34v.19c0,10.84-5.85,17.64-14.38,20.81l16.4,24H333.91l-14.38-21.47h-11.6v21.47H293.17ZM322.88,99c7.19,0,11.32-3.83,11.32-9.49v-.19c0-6.33-4.41-9.59-11.6-9.59H307.93V99Z"/><path class="cls-49" d="M359.5,100.19V100c0-19.08,14.38-34.7,35-34.7,12.65,0,20.23,4.22,26.46,10.35l-9.4,10.83c-5.17-4.69-10.44-7.57-17.16-7.57-11.31,0-19.46,9.39-19.46,20.9V100c0,11.5,8,21.09,19.46,21.09,7.67,0,12.37-3.07,17.64-7.86l9.4,9.49c-6.9,7.38-14.57,12-27.51,12C374.17,134.7,359.5,119.46,359.5,100.19Z"/><path class="cls-49" d="M456.22,66h13.61l28.76,67.58H483.16L477,118.5H448.65l-6.14,15.05H427.46Zm15.53,39.49L462.84,83.7l-8.92,21.76Z"/><path class="cls-49" d="M508.94,66.45h26.17c21.09,0,35.66,14.47,35.66,33.36V100c0,18.89-14.57,33.55-35.66,33.55H508.94Zm26.17,53.78c12.08,0,20.23-8.15,20.23-20V100c0-11.89-8.15-20.23-20.23-20.23H523.7v40.46Z"/><path class="cls-49" d="M584.57,66.45h14.77v67.1H584.57Z"/><path class="cls-49" d="M639.12,66h13.61l28.76,67.58H666.05l-6.13-15.05H631.54l-6.13,15.05h-15Zm15.53,39.49L645.73,83.7l-8.91,21.76Z"/><path class="cls-49" d="M213.43,172.81v-.13a21.63,21.63,0,0,1,22.1-21.79c7.58,0,12.16,2.05,16.55,5.78l-5.84,7c-3.25-2.7-6.14-4.27-11-4.27-6.75,0-12.1,6-12.1,13.12v.12c0,7.71,5.29,13.37,12.76,13.37a14.77,14.77,0,0,0,8.73-2.53v-6h-9.33v-8h18.3V187.8a27.39,27.39,0,0,1-18,6.68C222.46,194.48,213.43,185.27,213.43,172.81Z"/><path class="cls-49" d="M262.49,151.61h19.27c5.36,0,9.51,1.51,12.28,4.28a13.22,13.22,0,0,1,3.61,9.63v.12c0,6.8-3.67,11.08-9,13.06l10.3,15.06H288.08l-9-13.49h-7.28v13.49h-9.28Zm18.67,20.47c4.51,0,7.1-2.41,7.1-6V166c0-4-2.77-6-7.28-6h-9.21v12.1Z"/><path class="cls-49" d="M304.15,172.81v-.13c0-12,9.45-21.79,22.46-21.79s22.33,9.69,22.33,21.67v.12c0,12-9.45,21.8-22.45,21.8S304.15,184.79,304.15,172.81Zm35.1,0v-.13c0-7.22-5.3-13.24-12.76-13.24s-12.65,5.9-12.65,13.12v.12c0,7.23,5.3,13.25,12.77,13.25S339.25,180,339.25,172.81Z"/><path class="cls-49" d="M356.52,175.7V151.61h9.28v23.84c0,6.87,3.43,10.42,9.09,10.42s9.09-3.43,9.09-10.11V151.61h9.27v23.78c0,12.77-7.17,19-18.48,19S356.52,188.1,356.52,175.7Z"/><path class="cls-49" d="M402.7,151.61h17.21c10.06,0,16.14,6,16.14,14.57v.12c0,9.76-7.59,14.81-17,14.81h-7v12.65H402.7Zm16.61,21.26c4.64,0,7.35-2.77,7.35-6.39v-.12c0-4.15-2.89-6.38-7.53-6.38H412v12.89Z"/></svg>