<svg id="svg" version="1.1" xmlns="http://www.w3.org/2000/svg" xmlns:xlink="http://www.w3.org/1999/xlink" width="400" height="84.61538461538461" viewBox="0, 0, 400,84.61538461538461"><g id="svgg"><path id="path0" d="M23.036 11.458 L 23.000 15.333 21.172 15.333 L 19.344 15.333 19.291 13.375 C 19.262 12.298,19.222 13.160,19.203 15.292 L 19.167 19.167 17.339 19.167 L 15.511 19.167 15.458 17.208 C 15.429 16.131,15.389 16.994,15.369 19.125 L 15.333 23.000 11.458 23.036 C 9.327 23.056,8.465 23.095,9.542 23.124 L 11.500 23.177 11.500 25.005 L 11.500 26.833 7.625 26.869 C 5.494 26.889,4.631 26.929,5.708 26.958 L 7.667 27.011 7.667 28.839 L 7.667 30.667 5.750 30.667 L 3.833 30.667 3.833 46.083 L 3.833 61.500 5.750 61.500 L 7.667 61.500 7.667 63.417 L 7.667 65.333 9.583 65.333 L 11.500 65.333 11.500 67.250 L 11.500 69.167 13.417 69.167 L 15.333 69.167 15.333 71.083 L 15.333 73.000 17.250 73.000 L 19.167 73.000 19.167 74.917 L 19.167 76.833 21.083 76.833 L 23.000 76.833 23.000 78.750 L 23.000 80.667 38.417 80.667 L 53.833 80.667 53.833 78.750 L 53.833 76.833 51.917 76.833 L 50.000 76.833 50.000 74.917 L 50.000 73.000 38.500 73.000 L 27.000 73.000 26.964 69.125 C 26.944 66.994,26.905 66.134,26.875 67.214 L 26.823 69.177 24.953 69.130 L 23.083 69.083 23.096 65.333 C 23.104 63.271,23.082 62.430,23.049 63.464 L 22.989 65.344 21.120 65.297 L 19.250 65.250 19.250 63.333 L 19.250 61.417 17.333 61.417 L 15.417 61.417 15.417 46.083 L 15.417 30.750 17.286 30.703 L 19.156 30.656 19.203 28.786 L 19.250 26.917 21.120 26.870 L 22.989 26.823 23.036 24.953 L 23.083 23.083 25.042 23.036 L 27.000 22.989 27.000 21.078 L 27.000 19.167 38.500 19.167 L 50.000 19.167 50.000 17.250 L 50.000 15.333 51.917 15.333 L 53.833 15.333 53.833 13.417 L 53.833 11.500 38.505 11.500 L 23.177 11.500 23.124 9.542 C 23.095 8.465,23.056 9.327,23.036 11.458 M234.630 11.542 L 234.706 15.333 232.770 15.333 L 230.833 15.333 230.833 13.417 L 230.833 11.500 228.917 11.500 L 227.000 11.500 227.000 9.639 C 227.000 8.615,226.954 7.823,226.899 7.879 C 226.843 7.935,226.853 9.635,226.920 11.657 L 227.042 15.333 228.938 15.333 L 230.833 15.333 230.833 21.083 L 230.833 26.833 228.927 26.833 C 226.585 26.833,226.775 26.454,226.921 30.840 L 227.042 34.489 228.896 34.536 L 230.750 34.583 230.750 48.000 L 230.750 61.417 228.875 61.464 L 227.000 61.511 227.000 59.561 C 227.000 58.489,226.954 57.657,226.898 57.713 C 226.842 57.769,226.851 59.507,226.918 61.574 L 227.041 65.333 228.937 65.333 L 230.833 65.333 230.833 69.167 L 230.833 73.000 228.917 73.000 L 227.000 73.000 227.000 76.833 L 227.000 80.667 230.833 80.667 L 234.667 80.667 234.667 78.750 L 234.667 76.833 236.583 76.833 L 238.500 76.833 238.500 78.750 L 238.500 80.667 250.000 80.667 L 261.500 80.667 261.500 78.750 L 261.500 76.833 259.583 76.833 L 257.667 76.833 257.667 74.917 L 257.667 73.000 250.000 73.000 L 242.333 73.000 242.333 61.500 L 242.333 50.000 246.167 50.000 L 250.000 50.000 250.000 48.089 L 250.000 46.177 251.958 46.124 L 253.917 46.072 251.958 46.036 L 250.000 46.000 250.000 44.172 L 250.000 42.344 251.875 42.291 C 252.906 42.262,251.181 42.272,248.042 42.313 L 242.333 42.387 242.333 40.447 L 242.333 38.506 246.208 38.458 L 250.083 38.410 246.208 38.372 L 242.333 38.333 242.333 28.750 L 242.333 19.167 248.083 19.167 L 253.833 19.167 253.833 17.250 L 253.833 15.333 257.667 15.333 L 261.500 15.333 261.500 13.417 L 261.500 11.500 248.089 11.500 L 234.677 11.500 234.616 9.625 C 234.582 8.594,234.588 9.456,234.630 11.542 M326.897 9.583 C 326.897 10.683,326.924 11.112,326.957 10.535 C 326.990 9.959,326.989 9.059,326.956 8.535 C 326.923 8.012,326.897 8.483,326.897 9.583 M276.896 9.667 C 276.896 10.721,276.923 11.152,276.956 10.625 C 276.990 10.098,276.990 9.235,276.956 8.708 C 276.923 8.181,276.896 8.612,276.896 9.667 M134.564 13.417 C 134.564 14.517,134.591 14.945,134.624 14.368 C 134.656 13.792,134.656 12.892,134.623 12.368 C 134.590 11.845,134.563 12.317,134.564 13.417 M150.000 21.083 L 150.000 30.667 151.917 30.667 L 153.833 30.667 153.833 36.411 L 153.833 42.156 151.875 42.209 L 149.917 42.262 151.875 42.297 L 153.833 42.333 153.833 44.260 L 153.833 46.187 151.916 46.135 L 149.999 46.083 150.000 63.375 L 150.000 80.667 151.917 80.667 L 153.833 80.667 153.833 78.750 L 153.833 76.833 155.750 76.833 L 157.667 76.833 157.667 74.917 L 157.667 73.000 159.583 73.000 L 161.500 73.000 161.500 69.167 L 161.500 65.333 159.583 65.333 L 157.667 65.333 157.667 57.667 L 157.667 50.000 159.582 50.000 L 161.497 50.000 161.540 40.375 L 161.583 30.750 163.458 30.703 L 165.333 30.656 165.333 32.578 L 165.333 34.500 167.250 34.500 L 169.167 34.500 169.167 36.417 L 169.167 38.333 171.083 38.333 L 173.000 38.333 173.000 40.250 L 173.000 42.167 180.750 42.167 L 188.500 42.167 188.500 40.250 L 188.500 38.333 190.417 38.333 L 192.333 38.333 192.333 36.417 L 192.333 34.500 194.250 34.500 L 196.167 34.500 196.167 32.583 L 196.167 30.667 198.083 30.667 L 200.000 30.667 200.000 40.333 L 200.000 50.000 201.917 50.000 L 203.833 50.000 203.833 57.667 L 203.833 65.333 201.917 65.333 L 200.000 65.333 200.000 69.167 L 200.000 73.000 201.917 73.000 L 203.833 73.000 203.833 74.917 L 203.833 76.833 205.750 76.833 L 207.667 76.833 207.667 78.750 L 207.667 80.667 209.583 80.667 L 211.500 80.667 211.500 63.422 L 211.500 46.178 209.625 46.130 L 207.750 46.083 207.703 44.214 L 207.656 42.344 209.620 42.291 L 211.583 42.238 209.623 42.203 L 207.662 42.167 207.706 36.458 L 207.750 30.750 209.625 30.703 L 211.500 30.656 211.500 21.078 L 211.500 11.500 207.667 11.500 L 203.833 11.500 203.833 13.417 L 203.833 15.333 201.917 15.333 L 200.000 15.333 200.000 17.250 L 200.000 19.167 198.042 19.166 L 196.083 19.166 196.135 21.083 L 196.187 23.000 192.302 23.036 C 190.165 23.056,189.298 23.095,190.375 23.124 L 192.333 23.177 192.333 25.005 L 192.333 26.833 188.458 26.869 C 186.327 26.889,185.465 26.929,186.542 26.958 L 188.500 27.011 188.500 28.839 L 188.500 30.667 182.755 30.667 L 177.011 30.667 176.964 28.792 L 176.917 26.917 175.047 26.870 L 173.177 26.823 173.130 24.953 L 173.083 23.083 169.198 23.039 L 165.313 22.994 165.365 21.080 L 165.417 19.166 163.448 19.166 L 161.480 19.167 161.532 17.250 L 161.583 15.333 159.625 15.333 L 157.667 15.333 157.667 13.417 L 157.667 11.500 153.833 11.500 L 150.000 11.500 150.000 21.083 M280.802 13.416 L 280.854 15.333 282.760 15.333 L 284.667 15.333 284.667 17.250 L 284.667 19.167 290.417 19.167 L 296.167 19.167 296.167 40.333 L 296.167 61.500 298.083 61.500 L 300.000 61.500 300.000 67.250 L 300.000 73.000 298.083 73.000 L 296.167 73.000 296.167 74.917 L 296.167 76.833 298.083 76.833 L 300.000 76.833 300.000 78.750 L 300.000 80.667 301.917 80.667 L 303.833 80.667 303.833 78.750 L 303.833 76.833 305.750 76.833 L 307.667 76.833 307.667 74.917 L 307.667 73.000 305.750 73.000 L 303.833 73.000 303.833 67.250 L 303.833 61.500 305.750 61.500 L 307.667 61.500 307.667 40.333 L 307.667 19.167 313.411 19.167 L 319.156 19.167 319.203 17.292 L 319.250 15.417 321.115 15.370 L 322.980 15.323 323.032 13.411 L 323.083 11.499 301.917 11.499 L 280.750 11.499 280.802 13.416 M342.333 21.083 L 342.333 30.667 344.250 30.667 L 346.167 30.667 346.167 34.495 L 346.167 38.323 344.208 38.376 L 342.250 38.428 344.214 38.464 L 346.178 38.500 346.130 40.375 L 346.083 42.250 344.208 42.297 L 342.333 42.344 342.333 57.672 L 342.333 73.000 344.250 73.000 L 346.167 73.000 346.167 74.917 L 346.167 76.833 348.083 76.833 L 350.000 76.833 350.000 78.750 L 350.000 80.667 351.917 80.667 L 353.833 80.667 353.833 71.083 L 353.833 61.500 351.917 61.500 L 350.000 61.500 350.000 55.750 L 350.000 50.000 351.917 50.000 L 353.833 50.000 353.833 48.083 L 353.833 46.167 357.661 46.167 L 361.489 46.167 361.536 48.042 L 361.583 49.917 363.458 49.964 L 365.333 50.011 365.333 48.089 L 365.333 46.167 369.161 46.167 L 372.989 46.167 373.036 48.042 L 373.083 49.917 375.000 49.917 L 376.917 49.917 376.964 48.042 L 377.011 46.167 380.839 46.167 L 384.667 46.167 384.667 48.083 L 384.667 50.000 386.583 50.000 L 388.500 50.000 388.495 55.750 L 388.491 61.500 386.579 61.500 L 384.667 61.500 384.667 71.083 L 384.667 80.667 386.583 80.667 L 388.500 80.667 388.500 78.750 L 388.500 76.833 390.417 76.833 L 392.333 76.833 392.333 74.917 L 392.333 73.000 394.250 73.000 L 396.167 73.000 396.167 57.625 L 396.167 42.250 394.250 42.302 L 392.333 42.354 392.333 40.432 L 392.333 38.511 394.292 38.458 L 396.250 38.405 394.292 38.369 L 392.333 38.333 392.333 34.500 L 392.333 30.667 394.250 30.667 L 396.167 30.667 396.167 21.083 L 396.167 11.500 394.250 11.500 L 392.333 11.500 392.333 13.417 L 392.333 15.333 390.375 15.333 L 388.417 15.333 388.468 17.250 L 388.520 19.167 386.593 19.167 L 384.667 19.167 384.667 28.750 L 384.667 38.333 378.922 38.333 L 373.178 38.333 373.130 36.458 L 373.083 34.583 369.208 34.539 L 365.333 34.494 365.333 36.414 L 365.333 38.333 359.583 38.333 L 353.833 38.333 353.833 28.750 L 353.833 19.167 351.917 19.167 L 350.000 19.167 350.000 17.250 L 350.000 15.333 348.083 15.333 L 346.167 15.333 346.167 13.417 L 346.167 11.500 344.250 11.500 L 342.333 11.500 342.333 21.083 M88.500 17.250 L 88.500 19.167 86.542 19.166 L 84.583 19.166 84.635 21.080 L 84.687 22.994 80.802 23.039 L 76.917 23.083 76.870 24.953 L 76.823 26.823 74.953 26.870 L 73.083 26.917 73.036 28.792 L 72.989 30.667 71.078 30.667 L 69.167 30.667 69.167 32.583 L 69.167 34.500 67.245 34.500 L 65.323 34.500 65.370 36.458 L 65.417 38.417 67.292 38.464 L 69.167 38.511 69.167 40.333 L 69.167 42.156 67.292 42.203 L 65.417 42.250 65.417 46.083 L 65.417 49.917 67.292 49.964 L 69.167 50.011 69.167 55.755 L 69.167 61.500 67.339 61.500 L 65.511 61.500 65.458 59.542 C 65.429 58.465,65.389 60.190,65.369 63.375 L 65.333 69.167 67.250 69.167 L 69.167 69.167 69.167 73.000 L 69.167 76.833 73.083 76.833 L 77.000 76.833 77.000 78.750 L 77.000 80.667 82.750 80.667 L 88.500 80.667 88.500 78.750 L 88.500 76.833 92.333 76.833 L 96.167 76.833 96.167 78.750 L 96.167 80.667 100.000 80.667 L 103.833 80.667 103.833 78.750 L 103.833 76.833 105.750 76.833 L 107.667 76.833 107.667 78.750 L 107.667 80.667 109.583 80.667 L 111.500 80.667 111.500 78.750 L 111.500 76.833 113.417 76.833 L 115.333 76.833 115.333 74.917 L 115.333 73.000 117.250 73.000 L 119.167 73.000 119.167 71.083 L 119.167 69.167 121.083 69.167 L 123.000 69.167 123.000 67.255 L 123.000 65.344 124.958 65.297 L 126.917 65.250 126.964 63.375 L 127.011 61.500 130.839 61.500 L 134.667 61.500 134.631 55.708 C 134.611 52.523,134.571 50.798,134.542 51.875 L 134.489 53.833 130.750 53.833 L 127.011 53.833 126.951 51.958 C 126.917 50.927,126.896 51.771,126.904 53.833 L 126.917 57.583 123.151 57.628 L 119.386 57.673 119.276 54.643 C 119.216 52.977,119.167 50.390,119.167 48.895 L 119.167 46.178 117.292 46.130 L 115.417 46.083 115.370 44.214 L 115.323 42.344 117.286 42.291 L 119.250 42.238 117.292 42.203 L 115.333 42.167 115.333 38.333 L 115.333 34.500 109.583 34.500 L 103.833 34.500 103.833 32.669 L 103.833 30.838 109.625 30.792 C 112.810 30.766,109.360 30.728,101.958 30.706 L 88.500 30.667 88.500 28.766 L 88.500 26.865 96.125 26.905 C 100.319 26.928,101.181 26.920,98.042 26.888 L 92.333 26.829 92.333 22.998 L 92.333 19.167 94.250 19.167 L 96.167 19.167 96.167 17.250 L 96.167 15.333 92.333 15.333 L 88.500 15.333 88.500 17.250 M123.036 19.125 L 123.000 23.000 115.333 23.000 L 107.667 23.000 107.667 21.083 L 107.667 19.167 103.833 19.167 L 100.000 19.167 100.000 21.083 L 100.000 23.000 103.833 23.000 L 107.667 23.000 107.667 24.917 L 107.667 26.833 113.417 26.833 L 119.167 26.833 119.167 32.583 L 119.167 38.333 121.080 38.333 L 122.994 38.333 123.039 42.208 L 123.083 46.083 125.000 46.083 L 126.917 46.083 126.964 44.125 L 127.011 42.167 128.925 42.167 L 130.840 42.167 130.795 38.375 L 130.750 34.583 128.875 34.536 L 127.000 34.489 127.000 28.745 L 127.000 23.000 128.917 23.000 L 130.833 23.000 130.797 19.125 C 130.778 16.994,130.738 16.131,130.709 17.208 L 130.656 19.167 126.917 19.167 L 123.177 19.167 123.124 17.208 C 123.095 16.131,123.056 16.994,123.036 19.125 M80.833 25.000 L 80.833 26.833 78.917 26.833 L 77.000 26.833 77.000 25.000 L 77.000 23.167 78.917 23.167 L 80.833 23.167 80.833 25.000 M173.000 25.000 L 173.000 26.833 171.083 26.833 L 169.167 26.833 169.167 25.000 L 169.167 23.167 171.083 23.167 L 173.000 23.167 173.000 25.000 M77.000 28.833 L 77.000 30.667 75.083 30.667 L 73.167 30.667 73.167 28.833 L 73.167 27.000 75.083 27.000 L 77.000 27.000 77.000 28.833 M176.833 28.833 L 176.833 30.667 174.917 30.667 L 173.000 30.667 173.000 28.833 L 173.000 27.000 174.917 27.000 L 176.833 27.000 176.833 28.833 M230.833 28.833 L 230.833 30.667 228.917 30.667 L 227.000 30.667 227.000 28.833 L 227.000 27.000 228.917 27.000 L 230.833 27.000 230.833 28.833 M89.458 30.777 L 92.333 30.886 92.333 32.693 L 92.333 34.500 88.500 34.500 L 84.667 34.500 84.667 32.583 L 84.667 30.667 85.625 30.667 C 86.152 30.667,87.877 30.717,89.458 30.777 M73.000 32.667 L 73.000 34.500 71.167 34.500 L 69.333 34.500 69.333 32.667 L 69.333 30.833 71.167 30.833 L 73.000 30.833 73.000 32.667 M184.667 32.667 L 184.667 34.500 180.833 34.500 L 177.000 34.500 177.000 32.667 L 177.000 30.833 180.833 30.833 L 184.667 30.833 184.667 32.667 M87.443 34.667 L 88.500 34.667 88.500 36.500 L 88.500 38.333 84.667 38.333 L 80.833 38.333 80.833 36.390 L 80.833 34.448 83.610 34.557 C 85.137 34.617,86.862 34.667,87.443 34.667 M126.833 36.417 L 126.833 38.333 124.917 38.333 L 123.000 38.333 123.000 36.528 C 123.000 34.338,122.838 34.500,125.028 34.500 L 126.833 34.500 126.833 36.417 M69.167 36.500 L 69.167 38.333 67.333 38.333 L 65.500 38.333 65.500 36.500 L 65.500 34.667 67.333 34.667 L 69.167 34.667 69.167 36.500 M130.667 36.500 L 130.667 38.333 128.833 38.333 L 127.000 38.333 127.000 36.500 L 127.000 34.667 128.833 34.667 L 130.667 34.667 130.667 36.500 M373.000 36.500 L 373.000 38.333 369.250 38.333 L 365.500 38.333 365.500 36.500 L 365.500 34.667 369.250 34.667 L 373.000 34.667 373.000 36.500 M83.615 38.500 L 84.678 38.500 84.630 40.375 L 84.583 42.250 82.708 42.297 L 80.833 42.344 80.833 53.839 L 80.833 65.333 94.250 65.333 L 107.667 65.333 107.667 63.417 L 107.667 61.500 109.583 61.500 L 111.500 61.500 111.500 59.583 L 111.500 57.667 113.417 57.667 L 115.333 57.667 115.333 61.510 L 115.333 65.354 113.416 65.302 L 111.499 65.250 111.500 67.208 L 111.500 69.167 109.583 69.167 L 107.667 69.167 107.667 71.083 L 107.667 73.000 92.333 73.000 L 77.000 73.000 77.000 55.640 L 77.000 38.281 79.777 38.390 C 81.304 38.451,83.031 38.500,83.615 38.500 M126.964 40.375 L 126.917 42.250 125.042 42.297 L 123.167 42.344 123.167 40.422 L 123.167 38.500 125.089 38.500 L 127.011 38.500 126.964 40.375 M365.333 40.419 L 365.333 42.338 359.625 42.294 L 353.917 42.250 353.870 40.375 L 353.822 38.500 359.578 38.500 L 365.333 38.500 365.333 40.419 M384.630 40.375 L 384.583 42.250 378.833 42.250 L 373.083 42.250 373.036 40.375 L 372.989 38.500 378.833 38.500 L 384.678 38.500 384.630 40.375 M69.167 44.250 L 69.167 46.167 67.333 46.167 L 65.500 46.167 65.500 44.250 L 65.500 42.333 67.333 42.333 L 69.167 42.333 69.167 44.250 M119.167 57.667 L 119.167 61.500 117.360 61.500 L 115.552 61.500 115.443 58.625 C 115.383 57.044,115.334 55.319,115.334 54.792 L 115.333 53.833 117.250 53.833 L 119.167 53.833 119.167 57.667 M234.667 74.917 L 234.667 76.833 232.750 76.833 L 230.833 76.833 230.833 74.917 L 230.833 73.000 232.750 73.000 L 234.667 73.000 234.667 74.917 " stroke="none" fill="#4cbcfc" fill-rule="evenodd"></path><path id="path1" d="M138.333 1.833 L 138.333 3.667 136.417 3.667 L 134.500 3.667 134.500 5.667 L 134.500 7.667 132.583 7.667 L 130.667 7.667 130.667 9.583 L 130.667 11.500 126.833 11.500 L 123.000 11.500 123.000 13.417 L 123.000 15.333 117.333 15.333 L 111.667 15.333 111.667 13.417 L 111.667 11.500 107.750 11.500 L 103.833 11.500 103.833 13.417 L 103.833 15.333 102.000 15.333 L 100.167 15.333 100.167 13.417 L 100.167 11.500 98.167 11.500 L 96.167 11.500 96.167 9.583 L 96.167 7.667 90.333 7.667 L 84.500 7.667 84.500 9.583 L 84.500 11.500 82.583 11.500 L 80.667 11.500 80.667 15.333 L 80.667 19.167 78.750 19.167 L 76.833 19.167 76.833 21.083 L 76.833 23.000 74.917 23.000 L 73.000 23.000 73.000 24.917 L 73.000 26.833 71.083 26.833 L 69.167 26.833 69.167 28.750 L 69.167 30.667 67.250 30.667 L 65.333 30.667 65.333 32.583 L 65.333 34.500 63.417 34.500 L 61.500 34.500 61.500 36.500 L 61.500 38.500 63.417 38.500 L 65.333 38.500 65.333 40.333 L 65.333 42.167 63.417 42.167 L 61.500 42.167 61.500 46.083 L 61.500 50.000 63.417 50.000 L 65.333 50.000 65.333 53.750 L 65.333 57.500 63.417 57.500 L 61.500 57.500 61.500 63.333 L 61.500 69.167 63.417 69.167 L 65.333 69.167 65.333 73.000 L 65.333 76.833 67.250 76.833 L 69.167 76.833 69.167 78.833 L 69.167 80.833 73.000 80.833 L 76.833 80.833 76.833 82.667 L 76.833 84.500 82.667 84.500 L 88.500 84.500 88.500 82.667 L 88.500 80.833 92.250 80.833 L 96.000 80.833 96.000 82.667 L 96.000 84.500 100.000 84.500 L 104.000 84.500 104.000 82.667 L 104.000 80.833 105.833 80.833 L 107.667 80.833 107.667 82.667 L 107.667 84.500 109.667 84.500 L 111.667 84.500 111.667 82.667 L 111.667 80.833 113.583 80.833 L 115.500 80.833 115.500 78.833 L 115.500 76.833 117.417 76.833 L 119.333 76.833 119.333 74.917 L 119.333 73.000 121.250 73.000 L 123.167 73.000 123.167 71.083 L 123.167 69.167 125.083 69.167 L 127.000 69.167 127.000 67.250 L 127.000 65.333 130.833 65.333 L 134.667 65.333 134.667 63.417 L 134.667 61.500 136.583 61.500 L 138.500 61.500 138.500 53.750 L 138.500 46.000 134.667 46.000 L 130.833 46.000 130.833 44.167 L 130.833 42.333 132.750 42.333 L 134.667 42.333 134.667 38.417 L 134.667 34.500 132.750 34.500 L 130.833 34.500 130.833 28.833 L 130.833 23.167 132.750 23.167 L 134.667 23.167 134.667 19.333 L 134.667 15.500 136.583 15.500 L 138.500 15.500 138.500 13.583 L 138.500 11.667 140.417 11.667 L 142.333 11.667 142.333 9.750 L 142.333 7.833 144.167 7.833 L 146.000 7.833 146.000 19.333 L 146.000 30.833 147.917 30.833 L 149.833 30.833 149.833 36.500 L 149.833 42.167 147.917 42.167 L 146.000 42.167 146.000 61.500 L 146.000 80.833 147.917 80.833 L 149.833 80.833 149.833 82.667 L 149.833 84.500 151.917 84.500 L 154.000 84.500 154.000 82.667 L 154.000 80.833 155.917 80.833 L 157.833 80.833 157.833 78.833 L 157.833 76.833 159.750 76.833 L 161.667 76.833 161.667 74.917 L 161.667 73.000 163.583 73.000 L 165.500 73.000 165.500 67.167 L 165.500 61.333 163.583 61.333 L 161.667 61.333 161.667 55.667 L 161.667 50.000 163.583 50.000 L 165.500 50.000 165.500 44.250 L 165.500 38.500 167.333 38.500 L 169.167 38.500 169.167 40.417 L 169.167 42.333 171.083 42.333 L 173.000 42.333 173.000 44.250 L 173.000 46.167 180.750 46.167 L 188.500 46.167 188.500 44.250 L 188.500 42.333 190.417 42.333 L 192.333 42.333 192.333 40.417 L 192.333 38.500 194.167 38.500 L 196.000 38.500 196.000 44.250 L 196.000 50.000 197.917 50.000 L 199.833 50.000 199.833 55.667 L 199.833 61.333 197.917 61.333 L 196.000 61.333 196.000 67.167 L 196.000 73.000 197.917 73.000 L 199.833 73.000 199.833 74.917 L 199.833 76.833 201.833 76.833 L 203.833 76.833 203.833 78.833 L 203.833 80.833 205.750 80.833 L 207.667 80.833 207.667 82.667 L 207.667 84.500 209.667 84.500 L 211.667 84.500 211.667 82.667 L 211.667 80.833 213.583 80.833 L 215.500 80.833 215.500 61.500 L 215.500 42.167 213.583 42.167 L 211.667 42.167 211.667 36.500 L 211.667 30.833 213.583 30.833 L 215.500 30.833 215.500 19.250 L 215.500 7.667 213.583 7.667 L 211.667 7.667 211.667 5.667 L 211.667 3.667 207.750 3.667 L 203.833 3.667 203.833 5.667 L 203.833 7.667 201.833 7.667 L 199.833 7.667 199.833 9.583 L 199.833 11.500 197.917 11.500 L 196.000 11.500 196.000 13.417 L 196.000 15.333 194.083 15.333 L 192.167 15.333 192.167 17.250 L 192.167 19.167 190.250 19.167 L 188.333 19.167 188.333 21.083 L 188.333 23.000 186.417 23.000 L 184.500 23.000 184.500 24.917 L 184.500 26.833 180.750 26.833 L 177.000 26.833 177.000 24.917 L 177.000 23.000 175.083 23.000 L 173.167 23.000 173.167 21.083 L 173.167 19.167 171.250 19.167 L 169.333 19.167 169.333 17.250 L 169.333 15.333 167.417 15.333 L 165.500 15.333 165.500 13.417 L 165.500 11.500 163.583 11.500 L 161.667 11.500 161.667 9.583 L 161.667 7.667 159.750 7.667 L 157.833 7.667 157.833 5.664 L 157.833 3.661 153.875 3.705 L 149.917 3.750 149.870 5.708 L 149.823 7.667 147.995 7.667 L 146.167 7.667 146.167 3.833 L 146.167 0.000 142.250 0.000 L 138.333 0.000 138.333 1.833 M23.000 5.667 L 23.000 7.667 21.083 7.667 L 19.167 7.667 19.167 9.583 L 19.167 11.500 17.250 11.500 L 15.333 11.500 15.333 13.417 L 15.333 15.333 13.417 15.333 L 11.500 15.333 11.500 17.250 L 11.500 19.167 9.583 19.167 L 7.667 19.167 7.667 21.083 L 7.667 23.000 5.750 23.000 L 3.833 23.000 3.833 24.917 L 3.833 26.833 1.917 26.833 L 0.000 26.833 0.000 44.167 L 0.000 61.500 1.917 61.500 L 3.833 61.500 3.833 63.417 L 3.833 65.333 5.750 65.333 L 7.667 65.333 7.667 67.250 L 7.667 69.167 9.583 69.167 L 11.500 69.167 11.500 71.083 L 11.500 73.000 13.417 73.000 L 15.333 73.000 15.333 74.917 L 15.333 76.833 17.250 76.833 L 19.167 76.833 19.167 78.833 L 19.167 80.833 21.083 80.833 L 23.000 80.833 23.000 82.667 L 23.000 84.500 40.417 84.500 L 57.833 84.500 57.833 82.667 L 57.833 80.833 59.750 80.833 L 61.667 80.833 61.667 78.750 L 61.667 76.667 59.750 76.667 L 57.833 76.667 57.833 74.750 L 57.833 72.833 55.917 72.833 L 54.000 72.833 54.000 70.917 L 54.000 69.000 52.083 69.000 L 50.167 69.000 50.167 67.083 L 50.167 65.167 38.583 65.167 L 27.000 65.167 27.000 63.250 L 27.000 61.333 25.083 61.333 L 23.167 61.333 23.167 59.417 L 23.167 57.500 21.250 57.500 L 19.333 57.500 19.333 44.167 L 19.333 30.833 21.250 30.833 L 23.167 30.833 23.167 28.917 L 23.167 27.000 25.083 27.000 L 27.000 27.000 27.000 25.083 L 27.000 23.167 38.583 23.167 L 50.167 23.167 50.167 21.250 L 50.167 19.333 52.083 19.333 L 54.000 19.333 54.000 17.417 L 54.000 15.500 55.917 15.500 L 57.833 15.500 57.833 13.583 L 57.833 11.667 59.750 11.667 L 61.667 11.667 61.667 9.667 L 61.667 7.667 59.750 7.667 L 57.833 7.667 57.833 5.667 L 57.833 3.667 40.417 3.667 L 23.000 3.667 23.000 5.667 M226.833 5.667 L 226.833 7.667 224.917 7.667 L 223.000 7.667 223.000 11.583 L 223.000 15.500 224.917 15.500 L 226.833 15.500 226.833 21.167 L 226.833 26.833 224.917 26.833 L 223.000 26.833 223.000 30.750 L 223.000 34.667 224.917 34.667 L 226.833 34.667 226.833 46.083 L 226.833 57.500 224.917 57.500 L 223.000 57.500 223.000 61.417 L 223.000 65.333 224.917 65.333 L 226.833 65.333 226.833 69.083 L 226.833 72.833 224.917 72.833 L 223.000 72.833 223.000 76.833 L 223.000 80.833 224.917 80.833 L 226.833 80.833 226.833 82.667 L 226.833 84.500 230.750 84.500 L 234.667 84.500 234.667 82.667 L 234.667 80.833 236.500 80.833 L 238.333 80.833 238.333 82.667 L 238.333 84.500 251.917 84.500 L 265.500 84.500 265.500 82.667 L 265.500 80.833 267.417 80.833 L 269.333 80.833 269.333 78.750 L 269.333 76.667 267.417 76.667 L 265.500 76.667 265.500 74.750 L 265.500 72.833 263.583 72.833 L 261.667 72.833 261.667 70.917 L 261.667 69.000 259.750 69.000 L 257.833 69.000 257.833 67.083 L 257.833 65.167 252.000 65.167 L 246.167 65.167 246.167 59.500 L 246.167 53.833 248.167 53.833 L 250.167 53.833 250.167 51.917 L 250.167 50.000 252.083 50.000 L 254.000 50.000 254.000 48.083 L 254.000 46.167 255.917 46.167 L 257.833 46.167 257.833 44.167 L 257.833 42.167 255.917 42.167 L 254.000 42.167 254.000 40.250 L 254.000 38.333 252.083 38.333 L 250.167 38.333 250.167 36.417 L 250.167 34.500 248.167 34.500 L 246.167 34.500 246.167 28.833 L 246.167 23.167 250.083 23.167 L 254.000 23.167 254.000 21.250 L 254.000 19.333 257.833 19.333 L 261.667 19.333 261.667 17.417 L 261.667 15.500 263.583 15.500 L 265.500 15.500 265.500 13.583 L 265.500 11.667 267.417 11.667 L 269.333 11.667 269.333 9.667 L 269.333 7.667 267.417 7.667 L 265.500 7.667 265.500 5.667 L 265.500 3.667 251.917 3.667 L 238.333 3.667 238.333 5.667 L 238.333 7.667 236.500 7.667 L 234.667 7.667 234.667 5.667 L 234.667 3.667 230.750 3.667 L 226.833 3.667 226.833 5.667 M276.833 5.667 L 276.833 7.667 274.917 7.667 L 273.000 7.667 273.000 9.667 L 273.000 11.667 274.917 11.667 L 276.833 11.667 276.833 13.583 L 276.833 15.500 278.750 15.500 L 280.667 15.500 280.667 17.417 L 280.667 19.333 282.583 19.333 L 284.500 19.333 284.500 21.250 L 284.500 23.167 288.333 23.167 L 292.167 23.167 292.167 42.333 L 292.167 61.500 294.083 61.500 L 296.000 61.500 296.000 65.250 L 296.000 69.000 294.083 69.000 L 292.167 69.000 292.167 72.917 L 292.167 76.833 294.083 76.833 L 296.000 76.833 296.000 78.833 L 296.000 80.833 297.917 80.833 L 299.833 80.833 299.833 82.667 L 299.833 84.500 301.917 84.500 L 304.000 84.500 304.000 82.667 L 304.000 80.833 305.917 80.833 L 307.833 80.833 307.833 78.833 L 307.833 76.833 309.750 76.833 L 311.667 76.833 311.667 72.917 L 311.667 69.000 309.750 69.000 L 307.833 69.000 307.833 65.250 L 307.833 61.500 309.750 61.500 L 311.667 61.500 311.667 42.333 L 311.667 23.167 315.500 23.167 L 319.333 23.167 319.333 21.250 L 319.333 19.333 321.250 19.333 L 323.167 19.333 323.167 17.417 L 323.167 15.500 325.083 15.500 L 327.000 15.500 327.000 13.583 L 327.000 11.667 328.917 11.667 L 330.833 11.667 330.833 9.667 L 330.833 7.667 328.917 7.667 L 327.000 7.667 327.000 5.667 L 327.000 3.667 301.917 3.667 L 276.833 3.667 276.833 5.667 M342.167 5.667 L 342.167 7.667 340.250 7.667 L 338.333 7.667 338.333 19.250 L 338.333 30.833 340.250 30.833 L 342.167 30.833 342.167 34.583 L 342.167 38.333 340.250 38.333 L 338.333 38.333 338.333 55.667 L 338.333 73.000 340.250 73.000 L 342.167 73.000 342.167 74.917 L 342.167 76.833 344.083 76.833 L 346.000 76.833 346.000 78.833 L 346.000 80.833 347.917 80.833 L 349.833 80.833 349.833 82.667 L 349.833 84.500 351.917 84.500 L 354.000 84.500 354.000 82.667 L 354.000 80.833 355.917 80.833 L 357.833 80.833 357.833 69.167 L 357.833 57.500 355.917 57.500 L 354.000 57.500 354.000 53.750 L 354.000 50.000 357.750 50.000 L 361.500 50.000 361.500 51.917 L 361.500 53.833 363.500 53.833 L 365.500 53.833 365.500 51.917 L 365.500 50.000 369.250 50.000 L 373.000 50.000 373.000 51.917 L 373.000 53.833 375.000 53.833 L 377.000 53.833 377.000 51.917 L 377.000 50.000 380.750 50.000 L 384.500 50.000 384.500 53.750 L 384.500 57.500 382.583 57.500 L 380.667 57.500 380.667 69.167 L 380.667 80.833 382.583 80.833 L 384.500 80.833 384.500 82.667 L 384.500 84.500 386.500 84.500 L 388.500 84.500 388.500 82.667 L 388.500 80.833 390.417 80.833 L 392.333 80.833 392.333 78.833 L 392.333 76.833 394.250 76.833 L 396.167 76.833 396.167 74.917 L 396.167 73.000 398.083 73.000 L 400.000 73.000 400.000 55.667 L 400.000 38.333 398.083 38.333 L 396.167 38.333 396.167 34.583 L 396.167 30.833 398.083 30.833 L 400.000 30.833 400.000 19.250 L 400.000 7.667 398.083 7.667 L 396.167 7.667 396.167 5.667 L 396.167 3.667 394.167 3.667 L 392.167 3.667 392.167 5.667 L 392.167 7.667 390.250 7.667 L 388.333 7.667 388.333 9.583 L 388.333 11.500 386.417 11.500 L 384.500 11.500 384.500 13.417 L 384.500 15.333 382.583 15.333 L 380.667 15.333 380.667 24.917 L 380.667 34.500 376.917 34.500 L 373.167 34.500 373.167 32.583 L 373.167 30.667 369.250 30.667 L 365.333 30.667 365.333 32.583 L 365.333 34.500 361.583 34.500 L 357.833 34.500 357.833 24.917 L 357.833 15.333 355.917 15.333 L 354.000 15.333 354.000 13.417 L 354.000 11.500 352.083 11.500 L 350.167 11.500 350.167 9.583 L 350.167 7.667 348.167 7.667 L 346.167 7.667 346.167 5.667 L 346.167 3.667 344.167 3.667 L 342.167 3.667 342.167 5.667 M142.333 5.750 L 142.333 7.667 140.417 7.667 L 138.500 7.667 138.500 5.750 L 138.500 3.833 140.417 3.833 L 142.333 3.833 142.333 5.750 M57.667 9.583 L 57.667 11.500 55.750 11.500 L 53.833 11.500 53.833 13.417 L 53.833 15.333 51.917 15.333 L 50.000 15.333 50.000 17.250 L 50.000 19.167 38.500 19.167 L 27.000 19.167 27.000 21.078 L 27.000 22.989 25.042 23.036 L 23.083 23.083 23.036 24.953 L 22.989 26.823 21.120 26.870 L 19.250 26.917 19.203 28.786 L 19.156 30.656 17.286 30.703 L 15.417 30.750 15.417 44.167 L 15.417 57.583 17.286 57.630 L 19.156 57.677 19.203 59.547 L 19.250 61.417 21.208 61.464 L 23.167 61.511 23.167 63.422 L 23.167 65.333 25.083 65.333 L 27.000 65.333 27.000 67.250 L 27.000 69.167 38.500 69.167 L 50.000 69.167 50.000 71.083 L 50.000 73.000 51.917 73.000 L 53.833 73.000 53.833 74.917 L 53.833 76.833 55.750 76.833 L 57.667 76.833 57.667 78.750 L 57.667 80.667 40.333 80.667 L 23.000 80.667 23.000 78.750 L 23.000 76.833 21.083 76.833 L 19.167 76.833 19.167 74.917 L 19.167 73.000 17.250 73.000 L 15.333 73.000 15.333 71.083 L 15.333 69.167 13.417 69.167 L 11.500 69.167 11.500 67.250 L 11.500 65.333 9.583 65.333 L 7.667 65.333 7.667 63.417 L 7.667 61.500 5.750 61.500 L 3.833 61.500 3.833 44.167 L 3.833 26.833 5.750 26.833 L 7.667 26.833 7.667 24.917 L 7.667 23.000 9.583 23.000 L 11.500 23.000 11.500 21.083 L 11.500 19.167 13.417 19.167 L 15.333 19.167 15.333 17.250 L 15.333 15.333 17.250 15.333 L 19.167 15.333 19.167 13.417 L 19.167 11.500 21.083 11.500 L 23.000 11.500 23.000 9.583 L 23.000 7.667 40.333 7.667 L 57.667 7.667 57.667 9.583 M157.667 9.583 L 157.667 11.500 159.583 11.500 L 161.500 11.500 161.500 13.417 L 161.500 15.333 163.417 15.333 L 165.333 15.333 165.333 17.250 L 165.333 19.167 167.250 19.167 L 169.167 19.167 169.167 21.078 L 169.167 22.989 171.125 23.036 L 173.083 23.083 173.130 24.953 L 173.177 26.823 175.047 26.870 L 176.917 26.917 176.964 28.792 L 177.011 30.667 180.839 30.667 L 184.667 30.667 184.667 28.750 L 184.667 26.833 186.583 26.833 L 188.500 26.833 188.500 24.917 L 188.500 23.000 190.417 23.000 L 192.333 23.000 192.333 21.083 L 192.333 19.167 194.250 19.167 L 196.167 19.167 196.167 17.250 L 196.167 15.333 198.083 15.333 L 200.000 15.333 200.000 13.417 L 200.000 11.500 201.917 11.500 L 203.833 11.500 203.833 9.583 L 203.833 7.667 207.667 7.667 L 211.500 7.667 211.500 19.161 L 211.500 30.656 209.625 30.703 L 207.750 30.750 207.706 36.458 L 207.662 42.167 209.581 42.167 L 211.500 42.167 211.500 61.417 L 211.500 80.667 209.583 80.667 L 207.667 80.667 207.667 78.750 L 207.667 76.833 205.750 76.833 L 203.833 76.833 203.833 74.917 L 203.833 73.000 201.917 73.000 L 200.000 73.000 200.000 67.250 L 200.000 61.500 201.917 61.500 L 203.833 61.500 203.833 55.750 L 203.833 50.000 201.917 50.000 L 200.000 50.000 200.000 40.333 L 200.000 30.667 198.083 30.667 L 196.167 30.667 196.167 32.583 L 196.167 34.500 194.250 34.500 L 192.333 34.500 192.333 36.417 L 192.333 38.333 190.417 38.333 L 188.500 38.333 188.500 40.250 L 188.500 42.167 180.750 42.167 L 173.000 42.167 173.000 40.250 L 173.000 38.333 171.083 38.333 L 169.167 38.333 169.167 36.417 L 169.167 34.500 167.250 34.500 L 165.333 34.500 165.333 32.578 L 165.333 30.656 163.458 30.703 L 161.583 30.750 161.540 40.375 L 161.497 50.000 159.582 50.000 L 157.667 50.000 157.667 55.750 L 157.667 61.500 159.583 61.500 L 161.500 61.500 161.500 67.250 L 161.500 73.000 159.583 73.000 L 157.667 73.000 157.667 74.917 L 157.667 76.833 155.750 76.833 L 153.833 76.833 153.833 78.750 L 153.833 80.667 151.917 80.667 L 150.000 80.667 150.000 61.417 L 150.000 42.167 151.917 42.167 L 153.833 42.167 153.833 36.417 L 153.833 30.667 151.917 30.667 L 150.000 30.667 150.000 19.167 L 150.000 7.667 153.833 7.667 L 157.667 7.667 157.667 9.583 M234.667 9.583 L 234.667 11.500 236.583 11.500 L 238.500 11.500 238.500 9.583 L 238.500 7.667 251.917 7.667 L 265.333 7.667 265.333 9.583 L 265.333 11.500 263.417 11.500 L 261.500 11.500 261.500 13.417 L 261.500 15.333 257.667 15.333 L 253.833 15.333 253.833 17.250 L 253.833 19.167 248.083 19.167 L 242.333 19.167 242.333 28.750 L 242.333 38.333 246.167 38.333 L 250.000 38.333 250.000 40.250 L 250.000 42.167 251.917 42.167 L 253.833 42.167 253.833 44.167 L 253.833 46.167 251.917 46.167 L 250.000 46.167 250.000 48.083 L 250.000 50.000 246.167 50.000 L 242.333 50.000 242.333 59.583 L 242.333 69.167 250.000 69.167 L 257.667 69.167 257.667 71.083 L 257.667 73.000 259.583 73.000 L 261.500 73.000 261.500 74.917 L 261.500 76.833 263.417 76.833 L 265.333 76.833 265.333 78.750 L 265.333 80.667 251.917 80.667 L 238.500 80.667 238.500 78.750 L 238.500 76.833 236.583 76.833 L 234.667 76.833 234.667 78.750 L 234.667 80.667 230.833 80.667 L 227.000 80.667 227.000 76.833 L 227.000 73.000 228.917 73.000 L 230.833 73.000 230.833 69.167 L 230.833 65.333 228.917 65.333 L 227.000 65.333 226.999 64.375 C 226.999 63.848,226.950 62.125,226.890 60.547 L 226.781 57.678 228.766 57.631 L 230.750 57.583 230.750 46.083 L 230.750 34.583 228.896 34.536 L 227.042 34.489 226.921 30.840 C 226.775 26.454,226.585 26.833,228.927 26.833 L 230.833 26.833 230.833 21.083 L 230.833 15.333 228.938 15.333 L 227.042 15.333 226.921 11.678 C 226.854 9.668,226.849 7.943,226.909 7.845 C 226.983 7.727,228.306 7.667,230.843 7.667 L 234.667 7.667 234.667 9.583 M327.000 9.578 L 327.000 11.489 325.042 11.536 L 323.083 11.583 323.036 13.453 L 322.989 15.323 321.120 15.370 L 319.250 15.417 319.203 17.292 L 319.156 19.167 313.411 19.167 L 307.667 19.167 307.667 40.333 L 307.667 61.500 305.750 61.500 L 303.833 61.500 303.833 65.333 L 303.833 69.167 305.750 69.167 L 307.667 69.167 307.667 73.000 L 307.667 76.833 305.750 76.833 L 303.833 76.833 303.833 78.750 L 303.833 80.667 301.917 80.667 L 300.000 80.667 300.000 78.750 L 300.000 76.833 298.083 76.833 L 296.167 76.833 296.167 73.000 L 296.167 69.167 298.083 69.167 L 300.000 69.167 300.000 65.333 L 300.000 61.500 298.083 61.500 L 296.167 61.500 296.167 40.333 L 296.167 19.167 290.417 19.167 L 284.667 19.167 284.667 17.250 L 284.667 15.333 282.755 15.333 L 280.844 15.333 280.797 13.458 L 280.750 11.583 278.792 11.536 L 276.833 11.489 276.833 9.689 C 276.833 8.699,276.883 7.839,276.944 7.778 C 277.006 7.717,288.293 7.667,302.028 7.667 L 327.000 7.667 327.000 9.578 M346.167 9.583 L 346.167 11.500 348.083 11.500 L 350.000 11.500 350.000 13.417 L 350.000 15.333 351.917 15.333 L 353.833 15.333 353.833 26.833 L 353.833 38.333 359.583 38.333 L 365.333 38.333 365.333 36.414 L 365.333 34.494 369.208 34.539 L 373.083 34.583 373.130 36.458 L 373.178 38.333 378.922 38.333 L 384.667 38.333 384.667 26.833 L 384.667 15.333 386.583 15.333 L 388.500 15.333 388.500 13.417 L 388.500 11.500 390.417 11.500 L 392.333 11.500 392.333 9.583 L 392.333 7.667 394.250 7.667 L 396.167 7.667 396.167 19.167 L 396.167 30.667 394.250 30.667 L 392.333 30.667 392.333 34.500 L 392.333 38.333 394.250 38.333 L 396.167 38.333 396.167 55.667 L 396.167 73.000 394.250 73.000 L 392.333 73.000 392.333 74.917 L 392.333 76.833 390.417 76.833 L 388.500 76.833 388.500 78.750 L 388.500 80.667 386.583 80.667 L 384.667 80.667 384.667 69.172 L 384.667 57.678 386.542 57.630 L 388.417 57.583 388.461 53.792 L 388.506 50.000 386.586 50.000 L 384.667 50.000 384.667 48.083 L 384.667 46.167 380.839 46.167 L 377.011 46.167 376.964 48.042 L 376.917 49.917 375.000 49.917 L 373.083 49.917 373.036 48.042 L 372.989 46.167 369.161 46.167 L 365.333 46.167 365.333 48.089 L 365.333 50.011 363.458 49.964 L 361.583 49.917 361.536 48.042 L 361.489 46.167 357.661 46.167 L 353.833 46.167 353.833 48.083 L 353.833 50.000 351.917 50.000 L 350.000 50.000 350.000 53.833 L 350.000 57.667 351.917 57.667 L 353.833 57.667 353.833 69.167 L 353.833 80.667 351.917 80.667 L 350.000 80.667 350.000 78.750 L 350.000 76.833 348.083 76.833 L 346.167 76.833 346.167 74.917 L 346.167 73.000 344.250 73.000 L 342.333 73.000 342.333 55.667 L 342.333 38.333 344.250 38.333 L 346.167 38.333 346.167 34.500 L 346.167 30.667 344.250 30.667 L 342.333 30.667 342.333 19.167 L 342.333 7.667 344.250 7.667 L 346.167 7.667 346.167 9.583 M138.333 9.667 L 138.333 11.500 136.500 11.500 L 134.667 11.500 134.667 13.417 L 134.667 15.333 132.750 15.333 L 130.833 15.333 130.833 19.167 L 130.833 23.000 128.917 23.000 L 127.000 23.000 127.000 28.745 L 127.000 34.489 128.875 34.536 L 130.750 34.583 130.795 38.375 L 130.840 42.167 128.925 42.167 L 127.011 42.167 126.964 44.125 L 126.917 46.083 125.000 46.083 L 123.083 46.083 123.039 42.208 L 122.994 38.333 121.080 38.333 L 119.167 38.333 119.167 32.583 L 119.167 26.833 113.417 26.833 L 107.667 26.833 107.667 24.917 L 107.667 23.000 103.833 23.000 L 100.000 23.000 100.000 21.083 L 100.000 19.167 101.917 19.167 L 103.833 19.167 103.833 17.250 L 103.833 15.333 107.667 15.333 L 111.500 15.333 111.500 17.250 L 111.500 19.167 117.250 19.167 L 123.000 19.167 123.000 17.250 L 123.000 15.333 126.917 15.333 L 130.833 15.333 130.833 13.417 L 130.833 11.500 132.750 11.500 L 134.667 11.500 134.667 9.667 L 134.667 7.833 136.500 7.833 L 138.333 7.833 138.333 9.667 M96.167 15.333 L 96.167 19.167 94.250 19.167 L 92.333 19.167 92.333 23.000 L 92.333 26.833 98.083 26.833 L 103.833 26.833 103.833 28.750 L 103.833 30.667 109.583 30.667 L 115.333 30.667 115.333 36.417 L 115.333 42.167 117.248 42.167 L 119.162 42.167 119.206 47.958 L 119.250 53.750 123.042 53.795 L 126.833 53.840 126.833 51.920 L 126.833 50.000 130.750 50.000 L 134.667 50.000 134.667 55.750 L 134.667 61.500 130.839 61.500 L 127.011 61.500 126.964 63.375 L 126.917 65.250 124.958 65.297 L 123.000 65.344 123.000 67.255 L 123.000 69.167 121.083 69.167 L 119.167 69.167 119.167 71.083 L 119.167 73.000 117.250 73.000 L 115.333 73.000 115.333 74.917 L 115.333 76.833 113.417 76.833 L 111.500 76.833 111.500 78.750 L 111.500 80.667 109.583 80.667 L 107.667 80.667 107.667 78.750 L 107.667 76.833 105.750 76.833 L 103.833 76.833 103.833 78.750 L 103.833 80.667 100.000 80.667 L 96.167 80.667 96.167 78.750 L 96.167 76.833 92.333 76.833 L 88.500 76.833 88.500 78.750 L 88.500 80.667 82.750 80.667 L 77.000 80.667 77.000 78.750 L 77.000 76.833 73.083 76.833 L 69.167 76.833 69.167 73.000 L 69.167 69.167 67.250 69.167 L 65.333 69.167 65.333 63.417 L 65.333 57.667 67.250 57.667 L 69.167 57.667 69.167 53.839 L 69.167 50.011 67.292 49.964 L 65.417 49.917 65.417 46.083 L 65.417 42.250 67.292 42.203 L 69.167 42.156 69.167 40.333 L 69.167 38.511 67.292 38.464 L 65.417 38.417 65.370 36.458 L 65.323 34.500 67.245 34.500 L 69.167 34.500 69.167 32.583 L 69.167 30.667 71.078 30.667 L 72.989 30.667 73.036 28.792 L 73.083 26.917 74.953 26.870 L 76.823 26.823 76.870 24.953 L 76.917 23.083 78.875 23.036 L 80.833 22.989 80.833 21.078 L 80.833 19.167 82.750 19.167 L 84.667 19.167 84.667 15.333 L 84.667 11.500 90.417 11.500 L 96.167 11.500 96.167 15.333 M230.833 13.417 L 230.833 15.333 232.750 15.333 L 234.667 15.333 234.667 13.417 L 234.667 11.500 232.750 11.500 L 230.833 11.500 230.833 13.417 M107.667 21.083 L 107.667 23.000 109.583 23.000 L 111.500 23.000 111.500 21.083 L 111.500 19.167 109.583 19.167 L 107.667 19.167 107.667 21.083 M88.500 28.750 L 88.500 30.667 86.583 30.667 L 84.667 30.667 84.667 32.583 L 84.667 34.500 86.583 34.500 L 88.500 34.500 88.500 32.583 L 88.500 30.667 90.417 30.667 L 92.333 30.667 92.333 28.750 L 92.333 26.833 90.417 26.833 L 88.500 26.833 88.500 28.750 M80.833 36.411 L 80.833 38.333 82.755 38.333 L 84.678 38.333 84.630 36.458 L 84.583 34.583 82.708 34.536 L 80.833 34.489 80.833 36.411 M123.111 34.611 C 123.050 34.672,123.000 35.535,123.000 36.528 L 123.000 38.333 124.917 38.333 L 126.833 38.333 126.833 36.417 L 126.833 34.500 125.028 34.500 C 124.035 34.500,123.172 34.550,123.111 34.611 M77.000 53.745 L 77.000 69.167 92.333 69.167 L 107.667 69.167 107.667 67.250 L 107.667 65.333 109.583 65.333 L 111.500 65.333 111.500 63.417 L 111.500 61.500 113.417 61.500 L 115.333 61.500 115.333 59.583 L 115.333 57.667 117.250 57.667 L 119.167 57.667 119.167 55.750 L 119.167 53.833 117.250 53.833 L 115.333 53.833 115.333 55.750 L 115.333 57.667 113.417 57.667 L 111.500 57.667 111.500 59.583 L 111.500 61.500 109.583 61.500 L 107.667 61.500 107.667 63.417 L 107.667 65.333 94.251 65.333 L 80.835 65.333 80.793 51.875 L 80.750 38.417 78.875 38.370 L 77.000 38.322 77.000 53.745 M230.833 74.917 L 230.833 76.833 232.750 76.833 L 234.667 76.833 234.667 74.917 L 234.667 73.000 232.750 73.000 L 230.833 73.000 230.833 74.917 " stroke="none" fill="#040404" fill-rule="evenodd"></path><path id="path2" d="M138.500 5.745 L 138.500 7.667 140.422 7.667 L 142.344 7.667 142.297 5.792 L 142.250 3.917 140.375 3.870 L 138.500 3.822 138.500 5.745 M23.167 9.583 L 23.167 11.500 40.417 11.500 L 57.667 11.500 57.667 9.583 L 57.667 7.667 40.417 7.667 L 23.167 7.667 23.167 9.583 M150.000 9.583 L 150.000 11.500 153.833 11.500 L 157.667 11.500 157.667 13.417 L 157.667 15.333 159.583 15.333 L 161.500 15.333 161.500 13.417 L 161.500 11.500 159.583 11.500 L 157.667 11.500 157.667 9.583 L 157.667 7.667 153.833 7.667 L 150.000 7.667 150.000 9.583 M203.833 9.583 L 203.833 11.500 201.917 11.500 L 200.000 11.500 200.000 13.417 L 200.000 15.333 198.083 15.333 L 196.167 15.333 196.167 17.250 L 196.167 19.167 198.083 19.167 L 200.000 19.167 200.000 17.250 L 200.000 15.333 201.917 15.333 L 203.833 15.333 203.833 13.417 L 203.833 11.500 207.667 11.500 L 211.500 11.500 211.500 9.583 L 211.500 7.667 207.667 7.667 L 203.833 7.667 203.833 9.583 M227.000 9.583 L 227.000 11.500 230.750 11.500 L 234.500 11.500 234.500 9.583 L 234.500 7.667 230.750 7.667 L 227.000 7.667 227.000 9.583 M238.500 9.583 L 238.500 11.500 251.917 11.500 L 265.333 11.500 265.333 9.583 L 265.333 7.667 251.917 7.667 L 238.500 7.667 238.500 9.583 M277.000 9.583 L 277.000 11.500 301.917 11.500 L 326.833 11.500 326.833 9.583 L 326.833 7.667 301.917 7.667 L 277.000 7.667 277.000 9.583 M342.333 9.583 L 342.333 11.500 344.250 11.500 L 346.167 11.500 346.167 13.417 L 346.167 15.333 348.083 15.333 L 350.000 15.333 350.000 17.250 L 350.000 19.167 351.917 19.167 L 353.833 19.167 353.833 17.250 L 353.833 15.333 351.917 15.333 L 350.000 15.333 350.000 13.417 L 350.000 11.500 348.083 11.500 L 346.167 11.500 346.167 9.583 L 346.167 7.667 344.250 7.667 L 342.333 7.667 342.333 9.583 M392.333 9.583 L 392.333 11.500 390.417 11.500 L 388.500 11.500 388.500 13.417 L 388.500 15.333 390.417 15.333 L 392.333 15.333 392.333 13.417 L 392.333 11.500 394.250 11.500 L 396.167 11.500 396.167 9.583 L 396.167 7.667 394.250 7.667 L 392.333 7.667 392.333 9.583 M19.333 13.417 L 19.333 15.333 21.167 15.333 L 23.000 15.333 23.000 13.417 L 23.000 11.500 21.167 11.500 L 19.333 11.500 19.333 13.417 M84.667 15.331 L 84.667 19.167 86.583 19.167 L 88.500 19.167 88.500 17.250 L 88.500 15.333 92.339 15.333 L 96.178 15.333 96.130 13.458 L 96.083 11.583 90.375 11.539 L 84.667 11.496 84.667 15.331 M130.833 13.417 L 130.833 15.333 132.667 15.333 L 134.500 15.333 134.500 13.417 L 134.500 11.500 132.667 11.500 L 130.833 11.500 130.833 13.417 M15.500 17.250 L 15.500 19.167 17.333 19.167 L 19.167 19.167 19.167 17.250 L 19.167 15.333 17.333 15.333 L 15.500 15.333 15.500 17.250 M103.944 15.444 C 103.883 15.506,103.833 16.368,103.833 17.361 L 103.833 19.167 107.667 19.167 L 111.500 19.167 111.500 17.250 L 111.500 15.333 107.778 15.333 C 105.731 15.333,104.006 15.383,103.944 15.444 M123.167 17.250 L 123.167 19.167 126.917 19.167 L 130.667 19.167 130.667 17.250 L 130.667 15.333 126.917 15.333 L 123.167 15.333 123.167 17.250 M161.611 15.444 C 161.550 15.506,161.500 16.368,161.500 17.361 L 161.500 19.167 163.417 19.167 L 165.333 19.167 165.333 17.250 L 165.333 15.333 163.528 15.333 C 162.535 15.333,161.672 15.383,161.611 15.444 M384.667 17.245 L 384.667 19.167 386.589 19.167 L 388.511 19.167 388.464 17.292 L 388.417 15.417 386.542 15.370 L 384.667 15.322 384.667 17.245 M11.611 19.278 C 11.550 19.339,11.500 20.201,11.500 21.194 L 11.500 23.000 13.417 23.000 L 15.333 23.000 15.333 21.083 L 15.333 19.167 13.528 19.167 C 12.535 19.167,11.672 19.217,11.611 19.278 M80.833 21.078 L 80.833 23.000 82.755 23.000 L 84.678 23.000 84.630 21.125 L 84.583 19.250 82.708 19.203 L 80.833 19.156 80.833 21.078 M111.611 19.278 C 111.550 19.339,111.500 20.201,111.500 21.194 L 111.500 23.000 117.250 23.000 L 123.000 23.000 123.000 21.083 L 123.000 19.167 117.361 19.167 C 114.260 19.167,111.672 19.217,111.611 19.278 M165.444 19.278 C 165.383 19.339,165.333 20.201,165.333 21.194 L 165.333 23.000 167.250 23.000 L 169.167 23.000 169.167 21.083 L 169.167 19.167 167.361 19.167 C 166.368 19.167,165.506 19.217,165.444 19.278 M192.333 21.078 L 192.333 23.000 194.255 23.000 L 196.178 23.000 196.130 21.125 L 196.083 19.250 194.208 19.203 L 192.333 19.156 192.333 21.078 M7.667 25.000 L 7.667 26.833 9.583 26.833 L 11.500 26.833 11.500 25.000 L 11.500 23.167 9.583 23.167 L 7.667 23.167 7.667 25.000 M77.000 25.000 L 77.000 26.833 78.917 26.833 L 80.833 26.833 80.833 25.000 L 80.833 23.167 78.917 23.167 L 77.000 23.167 77.000 25.000 M169.167 25.000 L 169.167 26.833 171.083 26.833 L 173.000 26.833 173.000 25.000 L 173.000 23.167 171.083 23.167 L 169.167 23.167 169.167 25.000 M188.500 25.000 L 188.500 26.833 190.417 26.833 L 192.333 26.833 192.333 25.000 L 192.333 23.167 190.417 23.167 L 188.500 23.167 188.500 25.000 M3.833 28.833 L 3.833 30.667 5.750 30.667 L 7.667 30.667 7.667 28.833 L 7.667 27.000 5.750 27.000 L 3.833 27.000 3.833 28.833 M73.167 28.833 L 73.167 30.667 75.083 30.667 L 77.000 30.667 77.000 28.833 L 77.000 27.000 75.083 27.000 L 73.167 27.000 73.167 28.833 M92.333 28.833 L 92.333 30.667 98.083 30.667 L 103.833 30.667 103.833 28.833 L 103.833 27.000 98.083 27.000 L 92.333 27.000 92.333 28.833 M173.000 28.833 L 173.000 30.667 174.917 30.667 L 176.833 30.667 176.833 28.833 L 176.833 27.000 174.917 27.000 L 173.000 27.000 173.000 28.833 M184.667 28.833 L 184.667 30.667 186.583 30.667 L 188.500 30.667 188.500 28.833 L 188.500 27.000 186.583 27.000 L 184.667 27.000 184.667 28.833 M227.000 28.833 L 227.000 30.667 228.917 30.667 L 230.833 30.667 230.833 28.833 L 230.833 27.000 228.917 27.000 L 227.000 27.000 227.000 28.833 M69.333 32.667 L 69.333 34.500 71.167 34.500 L 73.000 34.500 73.000 32.667 L 73.000 30.833 71.167 30.833 L 69.333 30.833 69.333 32.667 M88.500 32.667 L 88.500 34.500 90.417 34.500 L 92.333 34.500 92.333 32.667 L 92.333 30.833 90.417 30.833 L 88.500 30.833 88.500 32.667 M103.833 32.667 L 103.833 34.500 109.583 34.500 L 115.333 34.500 115.333 32.667 L 115.333 30.833 109.583 30.833 L 103.833 30.833 103.833 32.667 M177.000 32.667 L 177.000 34.500 180.833 34.500 L 184.667 34.500 184.667 32.667 L 184.667 30.833 180.833 30.833 L 177.000 30.833 177.000 32.667 M65.500 36.500 L 65.500 38.333 67.333 38.333 L 69.167 38.333 69.167 36.500 L 69.167 34.667 67.333 34.667 L 65.500 34.667 65.500 36.500 M84.667 36.500 L 84.667 38.333 86.583 38.333 L 88.500 38.333 88.500 36.500 L 88.500 34.667 86.583 34.667 L 84.667 34.667 84.667 36.500 M127.000 36.500 L 127.000 38.333 128.833 38.333 L 130.667 38.333 130.667 36.500 L 130.667 34.667 128.833 34.667 L 127.000 34.667 127.000 36.500 M365.500 36.500 L 365.500 38.333 369.250 38.333 L 373.000 38.333 373.000 36.500 L 373.000 34.667 369.250 34.667 L 365.500 34.667 365.500 36.500 M80.833 40.422 L 80.833 42.344 82.708 42.297 L 84.583 42.250 84.630 40.375 L 84.678 38.500 82.755 38.500 L 80.833 38.500 80.833 40.422 M123.167 40.422 L 123.167 42.344 125.042 42.297 L 126.917 42.250 126.964 40.375 L 127.011 38.500 125.089 38.500 L 123.167 38.500 123.167 40.422 M242.333 40.420 L 242.333 42.340 246.125 42.295 L 249.917 42.250 249.964 40.375 L 250.011 38.500 246.172 38.500 L 242.333 38.500 242.333 40.420 M342.333 40.422 L 342.333 42.344 344.208 42.297 L 346.083 42.250 346.130 40.375 L 346.178 38.500 344.255 38.500 L 342.333 38.500 342.333 40.422 M353.870 40.375 L 353.917 42.250 359.625 42.294 L 365.333 42.338 365.333 40.419 L 365.333 38.500 359.578 38.500 L 353.822 38.500 353.870 40.375 M373.036 40.375 L 373.083 42.250 378.833 42.250 L 384.583 42.250 384.630 40.375 L 384.678 38.500 378.833 38.500 L 372.989 38.500 373.036 40.375 M392.333 40.422 L 392.333 42.344 394.208 42.297 L 396.083 42.250 396.130 40.375 L 396.178 38.500 394.255 38.500 L 392.333 38.500 392.333 40.422 M65.500 44.250 L 65.500 46.167 67.333 46.167 L 69.167 46.167 69.167 44.250 L 69.167 42.333 67.333 42.333 L 65.500 42.333 65.500 44.250 M115.370 44.208 L 115.417 46.083 117.292 46.130 L 119.167 46.178 119.167 44.255 L 119.167 42.333 117.245 42.333 L 115.322 42.333 115.370 44.208 M150.036 44.208 L 150.083 46.083 151.958 46.130 L 153.833 46.178 153.833 44.255 L 153.833 42.333 151.911 42.333 L 149.989 42.333 150.036 44.208 M207.703 44.208 L 207.750 46.083 209.625 46.130 L 211.500 46.178 211.500 44.255 L 211.500 42.333 209.578 42.333 L 207.656 42.333 207.703 44.208 M250.000 44.167 L 250.000 46.000 251.917 46.000 L 253.833 46.000 253.833 44.167 L 253.833 42.333 251.917 42.333 L 250.000 42.333 250.000 44.167 M127.000 51.917 L 127.000 53.833 123.167 53.833 L 119.333 53.833 119.333 55.753 L 119.333 57.673 123.125 57.628 L 126.917 57.583 126.964 55.708 L 127.011 53.833 130.755 53.833 L 134.500 53.833 134.500 51.917 L 134.500 50.000 130.750 50.000 L 127.000 50.000 127.000 51.917 M15.370 59.542 L 15.417 61.417 17.286 61.464 L 19.156 61.511 19.203 63.380 L 19.250 65.250 21.120 65.297 L 22.989 65.344 23.036 67.214 L 23.083 69.083 24.958 69.130 L 26.833 69.178 26.833 67.255 L 26.833 65.333 24.917 65.333 L 23.000 65.333 23.000 63.417 L 23.000 61.500 21.083 61.500 L 19.167 61.500 19.167 59.583 L 19.167 57.667 17.245 57.667 L 15.322 57.667 15.370 59.542 M65.500 59.583 L 65.500 61.500 67.333 61.500 L 69.167 61.500 69.167 59.583 L 69.167 57.667 67.333 57.667 L 65.500 57.667 65.500 59.583 M115.500 59.583 L 115.500 61.500 117.333 61.500 L 119.167 61.500 119.167 59.583 L 119.167 57.667 117.333 57.667 L 115.500 57.667 115.500 59.583 M227.000 59.589 L 227.000 61.511 228.875 61.464 L 230.750 61.417 230.797 59.542 L 230.844 57.667 228.922 57.667 L 227.000 57.667 227.000 59.589 M350.000 59.583 L 350.000 61.500 351.917 61.500 L 353.833 61.500 353.833 59.583 L 353.833 57.667 351.917 57.667 L 350.000 57.667 350.000 59.583 M384.667 59.583 L 384.667 61.500 386.583 61.500 L 388.500 61.500 388.500 59.583 L 388.500 57.667 386.583 57.667 L 384.667 57.667 384.667 59.583 M111.536 63.375 L 111.583 65.250 113.458 65.297 L 115.333 65.344 115.333 63.422 L 115.333 61.500 113.411 61.500 L 111.489 61.500 111.536 63.375 M157.667 63.417 L 157.667 65.333 159.583 65.333 L 161.500 65.333 161.500 63.417 L 161.500 61.500 159.583 61.500 L 157.667 61.500 157.667 63.417 M200.000 63.417 L 200.000 65.333 201.917 65.333 L 203.833 65.333 203.833 63.417 L 203.833 61.500 201.917 61.500 L 200.000 61.500 200.000 63.417 M107.667 67.250 L 107.667 69.167 92.333 69.167 L 77.000 69.167 77.000 71.083 L 77.000 73.000 92.333 73.000 L 107.667 73.000 107.667 71.083 L 107.667 69.167 109.583 69.167 L 111.500 69.167 111.500 67.250 L 111.500 65.333 109.583 65.333 L 107.667 65.333 107.667 67.250 M27.000 71.083 L 27.000 73.000 38.500 73.000 L 50.000 73.000 50.000 74.917 L 50.000 76.833 51.917 76.833 L 53.833 76.833 53.833 78.750 L 53.833 80.667 55.750 80.667 L 57.667 80.667 57.667 78.750 L 57.667 76.833 55.750 76.833 L 53.833 76.833 53.833 74.917 L 53.833 73.000 51.917 73.000 L 50.000 73.000 50.000 71.083 L 50.000 69.167 38.500 69.167 L 27.000 69.167 27.000 71.083 M242.333 71.083 L 242.333 73.000 250.000 73.000 L 257.667 73.000 257.667 74.917 L 257.667 76.833 259.583 76.833 L 261.500 76.833 261.500 78.750 L 261.500 80.667 263.417 80.667 L 265.333 80.667 265.333 78.750 L 265.333 76.833 263.417 76.833 L 261.500 76.833 261.500 74.917 L 261.500 73.000 259.583 73.000 L 257.667 73.000 257.667 71.083 L 257.667 69.167 250.000 69.167 L 242.333 69.167 242.333 71.083 M296.167 71.083 L 296.167 73.000 298.083 73.000 L 300.000 73.000 300.000 71.083 L 300.000 69.167 298.083 69.167 L 296.167 69.167 296.167 71.083 M303.833 71.083 L 303.833 73.000 305.750 73.000 L 307.667 73.000 307.667 71.083 L 307.667 69.167 305.750 69.167 L 303.833 69.167 303.833 71.083 " stroke="none" fill="#fcfcfc" fill-rule="evenodd"></path></g></svg>