<?xml version="1.0" encoding="UTF-8" standalone="no"?>
<!-- Created with Inkscape (http://www.inkscape.org/) -->

<svg
   xmlns:dc="http://purl.org/dc/elements/1.1/"
   xmlns:cc="http://creativecommons.org/ns#"
   xmlns:rdf="http://www.w3.org/1999/02/22-rdf-syntax-ns#"
   xmlns:svg="http://www.w3.org/2000/svg"
   xmlns="http://www.w3.org/2000/svg"
   xmlns:sodipodi="http://sodipodi.sourceforge.net/DTD/sodipodi-0.dtd"
   xmlns:inkscape="http://www.inkscape.org/namespaces/inkscape"
   width="287.32501mm"
   height="101.833mm"
   viewBox="0 0 287.32501 101.833"
   version="1.1"
   id="svg1809"
   inkscape:version="0.92.4 (5da689c313, 2019-01-14)"
   sodipodi:docname="hrd_nftmarket_poziomo.svg">
  <defs
     id="defs1803" />
  <sodipodi:namedview
     id="base"
     pagecolor="#ffffff"
     bordercolor="#666666"
     borderopacity="1.0"
     inkscape:pageopacity="0.0"
     inkscape:pageshadow="2"
     inkscape:zoom="0.35"
     inkscape:cx="-310"
     inkscape:cy="560"
     inkscape:document-units="mm"
     inkscape:current-layer="layer1"
     showgrid="false"
     inkscape:snap-page="true"
     inkscape:window-width="1920"
     inkscape:window-height="1017"
     inkscape:window-x="-8"
     inkscape:window-y="-8"
     inkscape:window-maximized="1" />
  <metadata
     id="metadata1806">
    <rdf:RDF>
      <cc:Work
         rdf:about="">
        <dc:format>image/svg+xml</dc:format>
        <dc:type
           rdf:resource="http://purl.org/dc/dcmitype/StillImage" />
        <dc:title></dc:title>
      </cc:Work>
    </rdf:RDF>
  </metadata>
  <g
     inkscape:label="Layer 1"
     inkscape:groupmode="layer"
     id="layer1"
     transform="translate(0,-195.16702)">
    <g
       id="g1689"
       transform="translate(-1.8310547e-4,-1.2076996e-4)"
       inkscape:export-filename="D:\Vector\!HOARD\ARTY NA STRONE\Nowy folder\g1402.png"
       inkscape:export-xdpi="88"
       inkscape:export-ydpi="88">
      <g
         inkscape:export-ydpi="88"
         inkscape:export-xdpi="88"
         id="g1434">
        <rect
           style="opacity:1;fill:#000000;fill-opacity:1;stroke:none;stroke-width:0.26458332;stroke-linecap:round;stroke-linejoin:round;stroke-miterlimit:4;stroke-dasharray:none;stroke-dashoffset:0;stroke-opacity:1;paint-order:fill markers stroke"
           id="rect1005"
           width="287.32501"
           height="101.833"
           x="0"
           y="195.16701"
           inkscape:export-xdpi="88"
           inkscape:export-ydpi="88" />
        <g
           id="g845"
           transform="matrix(0.51668968,0,0,0.51668968,28.078173,205.42962)">
          <path
             inkscape:connector-curvature="0"
             style="fill:#ffffff"
             d="M 35.689,72.062 H 13.092 V 97.761 H 4.468 V 38.949 h 8.625 V 64.164 H 35.69 V 38.949 h 8.625 V 97.761 H 35.69 V 72.062 Z"
             id="path841" />
          <path
             inkscape:connector-curvature="0"
             style="fill:#ffffff"
             d="m 62.586,68.354 c 0,-6.845 0.195,-11.425 0.586,-13.743 0.417,-2.317 1.054,-4.19 1.914,-5.619 1.379,-2.705 3.592,-5.117 6.639,-7.233 2.994,-2.143 6.73,-3.241 11.208,-3.295 4.53,0.054 8.305,1.157 11.326,3.308 2.994,2.125 5.155,4.544 6.483,7.261 0.962,1.425 1.626,3.294 1.99,5.607 0.338,2.313 0.507,6.884 0.507,13.714 0,6.724 -0.169,11.269 -0.507,13.634 -0.365,2.367 -1.029,4.263 -1.992,5.688 -1.328,2.716 -3.489,5.109 -6.483,7.18 -3.021,2.151 -6.795,3.28 -11.325,3.389 -4.478,-0.108 -8.214,-1.237 -11.208,-3.389 -3.047,-2.07 -5.26,-4.464 -6.639,-7.18 C 64.668,86.788 64.291,85.941 63.953,85.134 63.64,84.301 63.38,83.252 63.172,81.988 62.78,79.623 62.586,75.078 62.586,68.354 Z m 8.625,0 c 0,5.795 0.208,9.715 0.626,11.763 0.365,2.049 1.109,3.706 2.231,4.973 0.913,1.213 2.113,2.196 3.6,2.951 1.461,0.889 3.209,1.333 5.245,1.333 2.061,0 3.848,-0.444 5.362,-1.333 1.435,-0.755 2.583,-1.738 3.444,-2.951 1.122,-1.267 1.891,-2.924 2.309,-4.973 0.391,-2.048 0.587,-5.968 0.587,-11.763 0,-5.793 -0.196,-9.741 -0.587,-11.843 -0.418,-1.994 -1.188,-3.625 -2.309,-4.892 -0.861,-1.212 -2.009,-2.223 -3.444,-3.032 -1.514,-0.781 -3.301,-1.199 -5.362,-1.253 -2.035,0.054 -3.784,0.472 -5.245,1.253 -1.487,0.809 -2.688,1.819 -3.6,3.032 -1.122,1.267 -1.866,2.897 -2.231,4.891 -0.418,2.103 -0.626,6.051 -0.626,11.844 z"
             id="path843" />
        </g>
        <g
           id="g851"
           transform="matrix(0.51668968,0,0,0.51668968,28.078173,205.42962)">
          <path
             inkscape:connector-curvature="0"
             style="fill:#ffffff"
             d="m 205.887,38.949 h 22.258 c 4.746,0 8.619,1.291 11.618,3.872 3.608,2.932 5.491,7.113 5.647,12.545 -0.104,7.987 -3.771,13.419 -11,16.296 l 13.185,26.099 h -10.247 l -11.79,-25.134 h -11.046 v 25.134 h -8.625 z m 8.625,25.779 h 13.083 c 3.238,-0.054 5.666,-1.024 7.285,-2.912 1.593,-1.753 2.39,-3.911 2.39,-6.472 -0.052,-3.073 -1.005,-5.298 -2.859,-6.673 -1.462,-1.213 -3.577,-1.82 -6.346,-1.82 h -13.553 z"
             id="path847" />
          <path
             inkscape:connector-curvature="0"
             style="fill:#ffffff"
             d="m 262.877,38.949 h 19.933 c 7.712,0.054 13.497,3.362 17.354,9.923 1.379,2.206 2.251,4.518 2.615,6.938 0.286,2.42 0.429,6.602 0.429,12.545 0,6.32 -0.222,10.729 -0.664,13.23 -0.209,1.265 -0.521,2.395 -0.938,3.389 -0.443,0.968 -0.978,1.977 -1.603,3.025 -1.668,2.771 -3.986,5.056 -6.956,6.857 -2.944,1.937 -6.553,2.904 -10.825,2.904 h -19.345 z m 8.625,50.425 h 10.328 c 4.851,0 8.371,-1.711 10.562,-5.133 0.965,-1.267 1.578,-2.87 1.839,-4.811 0.234,-1.914 0.353,-5.498 0.353,-10.752 0,-5.12 -0.118,-8.785 -0.353,-10.995 -0.313,-2.21 -1.056,-4.002 -2.229,-5.376 -2.4,-3.422 -5.79,-5.079 -10.171,-4.972 h -10.328 v 42.039 z"
             id="path849" />
        </g>
        <polygon
           style="fill:#ff4040"
           points="115.77,98.642 126.614,98.697 156.461,45.235 199.201,118.557 204.512,108.584 156.606,24.936 "
           id="polygon853"
           transform="matrix(0.51668968,0,0,0.51668968,28.078173,205.42962)" />
        <path
           inkscape:connector-curvature="0"
           style="clip-rule:evenodd;fill:#ffffff;fill-rule:evenodd;stroke-width:0.51668966"
           d="m 109.58649,256.41604 9.5355,-0.002 3.03607,5.28006 -15.20514,0.006 -0.045,-0.10024 z m -5.83808,-0.58334 -21.265914,0.004 20.497594,-37.58091 6.01479,0.0584 -18.095509,32.60157 15.444889,-0.001 -2.6346,4.82743 h -0.005 z"
           id="path855" />
        <polygon
           style="clip-rule:evenodd;fill:#ffffff;fill-rule:evenodd"
           points="139.849,85.912 145.497,75.513 156.487,75.578 150.785,85.868 "
           id="polygon857"
           transform="matrix(0.51668968,0,0,0.51668968,28.078173,205.42962)" />
        <polygon
           style="clip-rule:evenodd;fill:#ae0808;fill-rule:evenodd"
           points="150.785,85.868 139.849,85.912 146.338,97.556 105.289,97.574 110.314,107.322 151.771,107.304 152.662,108.904 152.653,108.904 158.4,118.652 199.238,118.615 156.466,45.242 151.099,54.859 182.069,108.876 163.956,108.893 "
           id="polygon859"
           transform="matrix(0.51668968,0,0,0.51668968,28.078173,205.42962)" />
        <polygon
           style="clip-rule:evenodd;fill:#ff4040;fill-rule:evenodd"
           points="169.046,98.803 163.94,108.999 150.766,85.86 156.487,75.578 "
           id="polygon861"
           transform="matrix(0.51668968,0,0,0.51668968,28.078173,205.42962)" />
        <text
           id="text881"
           y="279.32458"
           x="137.07553"
           style="font-style:normal;font-variant:normal;font-weight:500;font-stretch:normal;font-size:24.67507553px;line-height:9.25;font-family:'Sofia Pro';-inkscape-font-specification:'Sofia Pro Medium';letter-spacing:0px;word-spacing:0px;fill:#000000;fill-opacity:1;stroke:none;stroke-width:0.6168769"
           xml:space="preserve"><tspan
             style="font-style:normal;font-variant:normal;font-weight:500;font-stretch:normal;font-family:'Sofia Pro';-inkscape-font-specification:'Sofia Pro Medium';fill:#ffffff;stroke:none;stroke-width:0.6168769"
             y="279.32458"
             x="137.07553"
             id="tspan879"
             sodipodi:role="line">NFT market</tspan></text>
        <rect
           y="195.16714"
           x="-0.00027064892"
           height="30.387022"
           width="30.387022"
           id="rect885"
           style="opacity:1;fill:none;fill-opacity:1;stroke:none;stroke-width:0.26458332;stroke-linecap:round;stroke-linejoin:round;stroke-miterlimit:4;stroke-dasharray:none;stroke-dashoffset:0;stroke-opacity:1;paint-order:fill markers stroke" />
        <rect
           style="opacity:1;fill:none;fill-opacity:1;stroke:none;stroke-width:0.26458332;stroke-linecap:round;stroke-linejoin:round;stroke-miterlimit:4;stroke-dasharray:none;stroke-dashoffset:0;stroke-opacity:1;paint-order:fill markers stroke"
           id="rect887"
           width="30.387022"
           height="30.387022"
           x="-0.00027064892"
           y="255.94121" />
        <rect
           style="opacity:1;fill:none;fill-opacity:1;stroke:none;stroke-width:0.15275726;stroke-linecap:round;stroke-linejoin:round;stroke-miterlimit:4;stroke-dasharray:none;stroke-dashoffset:0;stroke-opacity:1;paint-order:fill markers stroke"
           id="rect889"
           width="30.387022"
           height="10.129007"
           x="256.93817"
           y="276.74182" />
        <rect
           style="opacity:1;fill:none;fill-opacity:1;stroke:none;stroke-width:0.26458332;stroke-linecap:round;stroke-linejoin:round;stroke-miterlimit:4;stroke-dasharray:none;stroke-dashoffset:0;stroke-opacity:1;paint-order:fill markers stroke"
           id="rect891"
           width="30.387022"
           height="30.387022"
           x="256.93817"
           y="195.16714" />
        <rect
           y="286.32825"
           x="-0.00027064892"
           height="10.129007"
           width="30.387022"
           id="rect893"
           style="opacity:1;fill:none;fill-opacity:1;stroke:none;stroke-width:0.15275726;stroke-linecap:round;stroke-linejoin:round;stroke-miterlimit:4;stroke-dasharray:none;stroke-dashoffset:0;stroke-opacity:1;paint-order:fill markers stroke" />
        <rect
           style="opacity:1;fill:none;fill-opacity:1;stroke:none;stroke-width:0.15275726;stroke-linecap:round;stroke-linejoin:round;stroke-miterlimit:4;stroke-dasharray:none;stroke-dashoffset:0;stroke-opacity:1;paint-order:fill markers stroke"
           id="rect895"
           width="30.387022"
           height="10.129007"
           x="256.93817"
           y="286.87085" />
      </g>
    </g>
  </g>
</svg>
