<?xml version="1.0" encoding="UTF-8"?>
<svg width="500px" height="100px" viewBox="0 0 500 100" version="1.1" xmlns="http://www.w3.org/2000/svg" xmlns:xlink="http://www.w3.org/1999/xlink">
    <title>Artboard 1</title>
    <defs>
        <polygon id="path-1" points="5.62750297e-14 0 28.5503358 0 28.5503358 45.1486162 5.62750297e-14 45.1486162"></polygon>
    </defs>
    <g id="Artboard-1" stroke="none" stroke-width="1" fill="none" fill-rule="evenodd">
        <g id="Group" transform="translate(3.000000, 6.000000)">
            <path d="M144,56.0714286 C144,63.0144832 140.076837,67 132.358946,67 L113.900025,67 L113.900025,58.7712311 L130.171617,58.7712311 C132.551597,58.7712311 133.709478,57.935813 133.709478,55.8146807 C133.709478,54.0786702 132.423163,52.9855168 129.593664,50.9927584 L119.9463,43.536208 C115.057907,39.8074391 113,36.335418 113,32.2215273 C113,25.2142857 117.115814,22 125.219995,22 L143.228408,22 L143.228408,30.2287689 L127.021034,30.2287689 C124.51262,30.2287689 123.290522,31.064187 123.290522,33.2504937 C123.290522,34.9213298 124.576837,36.0144832 127.470553,37.9430546 L137.0537,44.6283739 C141.942093,47.9720211 144,52.0217248 144,56.0714286" id="Fill-1" fill="#29296E"></path>
            <polygon id="Fill-3" fill="#29296E" points="183 30.2287689 171.230769 30.2287689 171.230769 67 160.769231 67 160.769231 30.2287689 149 30.2287689 149 22 183 22"></polygon>
            <path d="M211.9339,58.3217319 L194.0661,58.3217319 L191.024544,67 L180,67 L197.678008,22 L208.321992,22 L226,67 L214.975456,67 L211.9339,58.3217319 Z M209.272904,50.799842 L203.063264,32.9929996 L196.79036,50.799842 L209.272904,50.799842 Z" id="Fill-4" fill="#29296E"></path>
            <path d="M265,67 L254.553412,67 L252.542038,58.3861093 C251.244313,52.4078341 250.076161,50.8001975 245.534123,50.7360105 L241.381801,50.7360105 L241.381801,67 L231,67 L231,22 L249.621658,22 C259.28981,22 263.702275,26.2432521 263.702275,35.5 C263.702275,41.7360105 261.236398,45.5289664 256.240854,47.0714286 C259.809099,48.7432521 261.561327,52.0859118 262.988626,58.3861093 L265,67 Z M245.923839,43.2142857 C251.634029,43.2142857 253.320474,41.2215273 253.320474,36.4647795 C253.320474,31.7070441 251.634029,29.7142857 245.923839,29.7142857 L241.381801,29.7142857 L241.381801,43.2142857 L245.923839,43.2142857 Z" id="Fill-5" fill="#29296E"></path>
            <path d="M274,67 L284.512924,67 L284.512924,22 L274,22 L274,67 Z M284.512924,43.7929559 L301.267392,22.0009875 L313.817094,22.0009875 L296.207745,43.7929559 L315,67 L302.450298,67 L284.512924,43.7929559 Z" id="Fill-7" fill="#29296E"></path>
            <polygon id="Fill-8" fill="#29296E" points="380 22 366.251063 67 359.826141 67 348.967925 31 338.109709 67 331.620636 67 318 22 324.296621 22 335.025549 59.9927584 346.397956 22 351.537893 22 362.910301 59.9927584 373.703379 22"></polygon>
            <path d="M409.839564,55.3001975 L389.159428,55.3001975 L384.630511,67 L378,67 L396.315338,22 L402.683654,22 L421,67 L414.369489,67 L409.839564,55.3001975 Z M408.197819,50.9927584 L399.53227,28.4285714 L390.801173,50.9927584 L408.197819,50.9927584 Z" id="Fill-9" fill="#29296E"></path>
            <g id="Group-17" transform="translate(-0.000000, 0.000000)">
                <path d="M457.10376,67.4542262 L451.110295,67.4542262 L449.498574,59.7142936 C447.887842,51.6523591 445.890021,48.9425901 439.831216,48.8137894 L431.96863,48.8137894 L431.96863,67.4542262 L426.039515,67.4542262 L426.039515,22.3046192 L442.023078,22.3046192 C451.497385,22.3046192 455.686079,26.4975781 455.686079,35.0757062 C455.686079,41.5256501 453.043766,45.4600167 447.500752,46.7500055 C451.883486,48.4273872 453.881307,52.2319624 455.427688,59.7142936 L457.10376,67.4542262 Z M440.025256,44.4276294 C447.114652,44.4276294 449.756964,41.6544508 449.756964,35.5918999 C449.756964,29.6571589 447.114652,26.8195799 440.025256,26.8195799 L431.96863,26.8195799 L431.96863,44.4276294 L440.025256,44.4276294 Z" id="Fill-10" fill="#29296E"></path>
                <g id="Group-14" transform="translate(466.449664, 22.305115)">
                    <mask id="mask-2" fill="white">
                        <use xlink:href="#path-1"></use>
                    </mask>
                    <g id="Clip-13"></g>
                    <path d="M5.92911474,4.77256214 L5.92911474,18.5106453 L25.9083207,18.5106453 L25.9083207,22.9612057 L5.92911474,22.9612057 L5.92911474,32.6361214 C5.92911474,37.9902684 8.2486866,40.3760541 13.5343008,40.3760541 L28.5506328,40.3760541 L28.5506328,45.1486162 L12.6314201,45.1486162 C3.22245258,45.1486162 5.62750297e-14,42.0534358 5.62750297e-14,33.1523151 L5.62750297e-14,0 L28.5506328,0 L28.5506328,4.77256214 L5.92911474,4.77256214 Z" id="Fill-12" fill="#29296E" mask="url(#mask-2)"></path>
                </g>
                <path d="M89.5866567,44.1712169 L70.6063615,25.1760827 C69.964841,24.5340606 69.0441402,24.3418503 68.2362996,24.6004425 L55.7543696,27.9502521 C55.7533796,27.9492613 55.7523896,27.9482705 55.7504096,27.9482705 C55.7385296,27.9522336 55.7256596,27.9542152 55.7127896,27.9542152 C55.6434895,27.9542152 55.5880495,27.8987318 55.5880495,27.8293776 C55.5880495,27.7847927 55.6108195,27.7461525 55.6454695,27.7233647 C55.6454695,27.7233647 55.6444795,27.7233647 55.6444795,27.7233647 C57.0067206,26.8168057 59.0728523,25.1760827 64.0109762,20.2331073 C64.4683566,19.7753693 64.4683566,19.033279 64.0109762,18.5755411 L45.7929816,0.343303463 C45.3356013,-0.114434488 44.5940907,-0.114434488 44.1367103,0.343303463 L25.1554251,19.3384377 C24.5148946,19.9804597 24.3228345,20.9018803 24.5812247,21.7103525 L27.9274273,34.202041 C27.9274273,34.2030318 27.9254473,34.2030318 27.9264373,34.2060041 C27.9303973,34.2178934 27.9323773,34.2307735 27.9323773,34.2436535 C27.9323773,34.312017 27.8759473,34.3684912 27.8066472,34.3684912 C27.7630872,34.3684912 27.7234872,34.3457033 27.7017072,34.3110262 C27.7017072,34.3110262 27.7017072,34.312017 27.7017072,34.312017 C26.7958564,32.9487109 25.1554251,30.8809639 20.2173012,25.9389793 L20.2173012,25.9389793 L20.2173012,25.9389793 C19.7599208,25.4812413 19.0184102,25.4812413 18.5610298,25.9389793 L0.343035274,44.1712169 C-0.114345091,44.6289548 -0.114345091,45.3710452 0.343035274,45.8287831 L19.3233305,64.8239173 C19.964851,65.4659394 20.8845617,65.6581497 21.6933924,65.3995575 L34.1743323,62.0497479 C34.1763123,62.0507387 34.1763123,62.0517295 34.1792823,62.0517295 C34.1911624,62.0477664 34.2030424,62.0457848 34.2159124,62.0457848 C34.2852124,62.0457848 34.3416425,62.1012682 34.3416425,62.1706224 C34.3416425,62.2152073 34.3188725,62.2538475 34.2842224,62.2766353 C34.2842224,62.2766353 34.2852124,62.2766353 34.2852124,62.2766353 C32.9229713,63.1831943 30.8568397,64.8239173 25.9177257,69.7668927 C25.4603454,70.2246307 25.4603454,70.966721 25.9177257,71.4244589 L44.1367103,89.6566965 C44.5940907,90.1144345 45.3356013,90.1144345 45.7929816,89.6566965 L64.7732768,70.6615623 C65.4147973,70.0195403 65.6058675,69.0981197 65.3484673,68.2896475 L62.0012746,55.797959 C62.0012746,55.7969682 62.0032546,55.7969682 62.0022646,55.7939959 C61.9992946,55.7821066 61.9973146,55.7692265 61.9973146,55.7563465 C61.9973146,55.6869922 62.0527546,55.6315088 62.1220547,55.6315088 C62.1666047,55.6315088 62.2052148,55.6542967 62.2279848,55.6889738 C62.2279848,55.6889738 62.2279848,55.687983 62.2279848,55.687983 C63.1338355,57.0512891 64.7732768,59.1190361 69.7123908,64.0610207 L69.7123908,64.0610207 C70.1697711,64.5187587 70.9112817,64.5187587 71.3686621,64.0610207 L89.5866567,45.8287831 C90.044037,45.3710452 90.044037,44.6289548 89.5866567,44.1712169 M44.8990109,50.7707677 L36.9522746,58.7237169 C36.9473246,58.7286708 36.9423746,58.7336247 36.9364345,58.7375878 C36.9166345,58.7494771 36.8938645,58.7574033 36.8691145,58.7574033 C36.7998144,58.7574033 36.7433844,58.7009291 36.7433844,58.6315749 C36.7433844,58.617704 36.7453644,58.6038332 36.7503144,58.5919439 C36.7503144,58.5909531 36.7493244,58.5929347 36.7493244,58.5919439 L39.7727868,47.3060283 C40.031177,46.4965653 39.8391169,45.5761355 39.1975964,44.9341135 L31.25086,36.9811643 C31.2469,36.9762104 31.24195,36.9712565 31.23799,36.9653119 C31.22611,36.9454964 31.21819,36.9227086 31.21819,36.8979392 C31.21819,36.828585 31.27462,36.7721108 31.3439201,36.7721108 C31.3577801,36.7721108 31.3716401,36.7750831 31.3835201,36.7790462 C31.3845101,36.7790462 31.3825301,36.7780554 31.3825301,36.7780554 L42.6606191,39.8038816 C43.4684598,40.0624739 44.3891605,39.8702635 45.030681,39.2292323 L52.9774174,31.2762831 C52.9823674,31.2713292 52.9873174,31.2663753 52.9932574,31.2624122 C53.0120674,31.2505229 53.0358274,31.2425967 53.0605774,31.2425967 C53.1298775,31.2425967 53.1853175,31.2990709 53.1853175,31.3684251 C53.1853175,31.382296 53.1833375,31.3961668 53.1793775,31.4080561 C53.1793775,31.4090469 53.1793775,31.4070653 53.1793775,31.4080561 L50.1559151,42.6939717 C49.8985149,43.5024439 50.0905751,44.4238645 50.7311056,45.0658865 L58.6778419,53.0188357 C58.6827919,53.0237896 58.687742,53.0287435 58.690712,53.0346881 C58.703582,53.0545036 58.710512,53.0772914 58.710512,53.1020608 C58.710512,53.171415 58.6550719,53.2278892 58.5857719,53.2278892 C58.5719119,53.2278892 58.5580518,53.2249169 58.5451818,53.2209538 C58.5451818,53.2209538 58.5461718,53.2219446 58.5461718,53.2219446 L47.2690728,50.1951276 C46.4602422,49.9375261 45.5405314,50.1297365 44.8990109,50.7707677" id="Fill-15" fill="#29296E"></path>
            </g>
        </g>
    </g>
</svg>