<svg width="197" height="50" viewBox="0 0 197 50" fill="none" xmlns="http://www.w3.org/2000/svg">
<rect width="197" height="50" fill="white"/>
<path d="M0 0H197V50H0V0Z" fill="white"/>
<g clip-path="url(#clip0)">
<path d="M50.5 42L30.8442 8L11.1875 42L50.5 42ZM17.0311 23.9375L26.0625 8H8L17.0311 23.9375ZM42.4725 37.4995L19.2156 37.4995L30.8442 17.3845L42.4725 37.4995Z" fill="#2669F5"/>
<path d="M163.107 31.7291C163.822 31.7291 164.519 31.7043 165.199 31.6548C165.88 31.606 166.498 31.5418 167.057 31.4635C167.614 31.3845 168.104 31.3109 168.529 31.2421C168.951 31.1732 169.275 31.109 169.5 31.0501V21.4285C169.5 20.6224 169.389 19.8752 169.164 19.1862C168.941 18.4977 168.583 17.9023 168.095 17.4006C167.602 16.8981 166.96 16.5048 166.17 16.2198C165.378 15.9348 164.412 15.7916 163.276 15.7916C162.16 15.7916 161.206 15.8612 160.414 15.9983C159.622 16.1362 159.036 16.2833 158.658 16.4405L158.959 18.123C159.249 18.0247 159.707 17.8976 160.33 17.7397C160.956 17.5825 161.903 17.5036 163.175 17.5036C164.066 17.5036 164.786 17.626 165.333 17.8723C165.88 18.1191 166.304 18.4436 166.606 18.8469C166.905 19.2497 167.101 19.7019 167.19 20.2044C167.266 20.6332 167.303 21.0754 167.315 21.5263H167.323V21.7331C167.323 21.7404 167.325 21.7464 167.325 21.7538V22.6983H167.323V24.3803H167.325V29.7516C166.878 29.8305 166.337 29.8947 165.701 29.9435C165.066 29.993 164.323 30.0172 163.475 30.0172C162.785 30.0172 162.165 29.9629 161.618 29.8545C161.073 29.7469 160.603 29.575 160.213 29.3388C159.823 29.1026 159.521 28.7882 159.31 28.3934C159.097 28.0001 158.992 27.5192 158.992 26.9478C158.992 26.2982 159.148 25.7778 159.46 25.3837C159.772 24.9903 160.174 24.68 160.666 24.4537C161.155 24.2277 161.691 24.0805 162.271 24.0108C162.852 23.9427 163.41 23.9086 163.945 23.9086C164.365 23.9086 164.74 23.9206 165.079 23.9427V22.309C165.051 22.307 165.025 22.3023 164.998 22.2996C164.652 22.2694 164.323 22.2547 164.011 22.2547C162.964 22.2547 161.993 22.3438 161.1 22.521C160.208 22.6983 159.438 22.9786 158.791 23.3619C158.145 23.7461 157.642 24.2323 157.285 24.8231C156.929 25.4131 156.75 26.121 156.75 26.9478C156.75 27.8141 156.912 28.5467 157.235 29.1461C157.557 29.7469 158.005 30.2386 158.574 30.6226C159.143 31.0059 159.811 31.2862 160.581 31.4635C161.351 31.6401 162.194 31.7291 163.107 31.7291ZM107.859 31.7291C108.571 31.7291 109.269 31.7043 109.949 31.6548C110.63 31.606 111.249 31.5418 111.807 31.4635C112.364 31.3845 112.855 31.3109 113.279 31.2421C113.703 31.1732 114.027 31.109 114.25 31.0501V21.4285C114.25 20.6224 114.139 19.8752 113.916 19.1862C113.693 18.4977 113.335 17.9023 112.845 17.4006C112.354 16.8981 111.712 16.5048 110.92 16.2198C110.128 15.9348 109.164 15.7916 108.026 15.7916C106.91 15.7916 105.956 15.8612 105.164 15.9983C104.372 16.1362 103.787 16.2833 103.408 16.4405L103.708 18.123C103.998 18.0247 104.456 17.8976 105.081 17.7397C105.705 17.5825 106.653 17.5036 107.924 17.5036C108.818 17.5036 109.535 17.626 110.084 17.8723C110.63 18.1191 111.053 18.4436 111.356 18.8469C111.656 19.2497 111.85 19.7019 111.942 20.2044C112.018 20.6332 112.053 21.0754 112.065 21.5263H112.075V29.7516C111.628 29.8305 111.089 29.8947 110.452 29.9435C109.816 29.993 109.074 30.0172 108.227 30.0172C107.534 30.0172 106.915 29.9629 106.369 29.8545C105.822 29.7469 105.353 29.575 104.963 29.3388C104.572 29.1026 104.272 28.7882 104.06 28.3934C103.848 28.0001 103.743 27.5192 103.743 26.9478C103.743 26.2982 103.898 25.7778 104.211 25.3837C104.522 24.9903 104.924 24.68 105.415 24.4537C105.907 24.2277 106.442 24.0805 107.021 24.0108C107.602 23.9427 108.159 23.9086 108.694 23.9086C109.115 23.9086 109.488 23.9206 109.829 23.9427V22.309C109.801 22.307 109.777 22.3023 109.748 22.2996C109.402 22.2694 109.074 22.2547 108.762 22.2547C107.713 22.2547 106.742 22.3438 105.851 22.521C104.958 22.6983 104.189 22.9786 103.542 23.3619C102.894 23.7461 102.392 24.2323 102.035 24.8231C101.678 25.4131 101.5 26.121 101.5 26.9478C101.5 27.8141 101.662 28.5467 101.985 29.1461C102.309 29.7469 102.755 30.2386 103.323 30.6226C103.892 31.0059 104.563 31.2862 105.331 31.4635C106.101 31.6401 106.943 31.7291 107.859 31.7291ZM81.2964 31.7291C82.0093 31.7291 82.7066 31.7043 83.3875 31.6548C84.0675 31.606 84.6869 31.5418 85.245 31.4635C85.8016 31.3845 86.2938 31.3109 86.7172 31.2421C87.1407 31.1732 87.4646 31.109 87.6875 31.0501V21.4285C87.6875 20.6224 87.576 19.8752 87.3538 19.1862C87.1302 18.4977 86.7726 17.9023 86.2825 17.4006C85.7918 16.8981 85.1499 16.5048 84.3578 16.2198C83.5654 15.9348 82.601 15.7916 81.4632 15.7916C80.3472 15.7916 79.3939 15.8612 78.6018 15.9983C77.8094 16.1362 77.2243 16.2833 76.845 16.4405L77.1466 18.123C77.4361 18.0247 77.8932 17.8976 78.5187 17.7397C79.1426 17.5825 80.0912 17.5036 81.3629 17.5036C82.2549 17.5036 82.9744 17.626 83.5214 17.8723C84.0675 18.1191 84.4924 18.4436 84.7931 18.8469C85.0945 19.2497 85.2891 19.7019 85.3789 20.2044C85.4547 20.6332 85.491 21.0754 85.5035 21.5263H85.5121L85.5125 21.7434L85.5128 21.7538V22.6983H85.5121V24.3803H85.5128V29.7516C85.0662 29.8305 84.526 29.8947 83.8893 29.9435C83.2542 29.993 82.5121 30.0172 81.6643 30.0172C80.9725 30.0172 80.3531 29.9629 79.8068 29.8545C79.26 29.7469 78.7911 29.575 78.4011 29.3388C78.0107 29.1026 77.7093 28.7882 77.4982 28.3934C77.2858 28.0001 77.1802 27.5192 77.1802 26.9478C77.1802 26.2982 77.3359 25.7778 77.6485 25.3837C77.9599 24.9903 78.3616 24.68 78.853 24.4537C79.3438 24.2277 79.8787 24.0805 80.4593 24.0108C81.039 23.9427 81.5978 23.9086 82.1328 23.9086C82.5522 23.9086 82.9263 23.9206 83.2667 23.9427V22.309C83.239 22.307 83.2145 22.3023 83.1868 22.2996C82.8405 22.2694 82.512 22.2547 82.1993 22.2547C81.1505 22.2547 80.1802 22.3438 79.2884 22.521C78.3959 22.6983 77.626 22.9786 76.9789 23.3619C76.3312 23.7461 75.8293 24.2323 75.4723 24.8231C75.1162 25.4131 74.9375 26.121 74.9375 26.9478C74.9375 27.8141 75.0996 28.5467 75.4223 29.1461C75.7462 29.7469 76.192 30.2386 76.7606 30.6226C77.3305 31.0059 78.0001 31.2862 78.7699 31.4635C79.5396 31.6401 80.3808 31.7291 81.2964 31.7291ZM175.937 37.0416V30.6253C176.319 30.8844 176.93 31.1579 177.771 31.4468C178.613 31.7343 179.607 31.8791 180.749 31.8791C182.006 31.8791 183.122 31.6801 184.098 31.2822C185.074 30.8844 185.898 30.3324 186.572 29.6255C187.244 28.9192 187.756 28.0742 188.102 27.0885C188.45 26.1034 188.625 25.0244 188.625 23.8505C188.625 22.5969 188.416 21.4732 188.002 20.4781C187.586 19.4834 187.003 18.6379 186.253 17.941C185.501 17.2449 184.602 16.713 183.56 16.3443C182.517 15.9762 181.356 15.7916 180.077 15.7916C178.528 15.7916 177.25 15.8815 176.241 16.0609C175.231 16.2395 174.4 16.429 173.75 16.6278V37.0416H175.937ZM93.1268 31.7291V18.0297C93.312 17.9495 93.6991 17.8488 94.2879 17.7274C94.8766 17.6068 95.6559 17.5458 96.6271 17.5458C97.5505 17.5458 98.295 17.5917 98.8618 17.6821C99.4273 17.7734 99.8023 17.8583 99.9873 17.9385L100.437 16.2454C100.183 16.1447 99.7278 16.0445 99.0694 15.9431C98.4111 15.8423 97.7124 15.7916 96.9726 15.7916C95.5179 15.7916 94.2816 15.9081 93.2647 16.1398C92.2486 16.3716 91.4515 16.5992 90.875 16.8205V31.7291H93.1268ZM59.0628 37.0416V30.6253C59.4435 30.8844 60.0552 31.1579 60.8963 31.4468C61.7381 31.7343 62.7305 31.8791 63.8747 31.8791C65.1312 31.8791 66.2476 31.6801 67.2233 31.2822C68.1998 30.8844 69.0243 30.3324 69.6969 29.6255C70.3702 28.9192 70.8804 28.0742 71.228 27.0885C71.5763 26.1034 71.75 25.0244 71.75 23.8505C71.75 22.5969 71.5423 21.4732 71.1278 20.4781C70.7119 19.4834 70.1288 18.6379 69.3778 17.941C68.6257 17.2449 67.7287 16.713 66.6854 16.3443C65.6412 15.9762 64.481 15.7916 63.2021 15.7916C61.6538 15.7916 60.3749 15.8815 59.3652 16.0609C58.3556 16.2395 57.5257 16.429 56.875 16.6278V37.0416H59.0628ZM122.543 31.7291C124.58 31.7291 126.187 31.3694 127.363 30.6497C128.537 29.9299 129.125 28.8708 129.125 27.4706C129.125 26.7318 128.979 26.1173 128.689 25.6264C128.396 25.1364 128.017 24.7178 127.547 24.3677C127.076 24.0176 126.532 23.7179 125.919 23.4691C125.302 23.2209 124.658 22.977 123.987 22.7384C123.338 22.4992 122.762 22.2809 122.257 22.081C121.754 21.8826 121.328 21.6677 120.981 21.438C120.633 21.207 120.371 20.9418 120.193 20.6407C120.012 20.3402 119.923 19.98 119.923 19.5586C119.923 19.5351 119.926 16.7633 119.928 15.9898L119.929 15.7916H117.72C117.716 15.8694 117.708 18.992 117.707 19.625L117.707 19.7347C117.707 20.394 117.841 20.9541 118.11 21.4135C118.38 21.8738 118.736 22.2686 119.185 22.5983C119.632 22.9281 120.147 23.2176 120.728 23.4677C121.311 23.7179 121.926 23.9626 122.577 24.2025C123.382 24.5022 124.06 24.762 124.609 24.9821C125.156 25.2017 125.599 25.4321 125.934 25.672C126.271 25.912 126.51 26.1812 126.658 26.4815C126.802 26.7813 126.875 27.1415 126.875 27.5611C126.875 28.4405 126.466 29.0652 125.649 29.435C124.833 29.8055 123.797 29.9897 122.543 29.9897C121.848 29.9897 121.238 29.9502 120.713 29.87C120.186 29.7905 119.734 29.6946 119.352 29.5852C118.971 29.4757 118.669 29.3744 118.446 29.2855C118.222 29.195 118.076 29.1305 118.009 29.0904L117.437 30.8591C117.707 30.98 118.244 31.1547 119.051 31.3837C119.856 31.6143 121.02 31.7291 122.543 31.7291ZM138.382 31.7291C138.729 31.0613 139.096 30.3107 139.482 29.4759C139.866 28.6418 140.264 27.7503 140.672 26.8015C141.081 25.8519 141.477 24.8542 141.858 23.8067C142.242 22.7607 142.607 21.6897 142.954 20.5942C143.303 21.6872 143.67 22.7554 144.054 23.8002C144.438 24.8443 144.835 25.8409 145.246 26.789C145.656 27.7379 146.055 28.6288 146.442 29.4622C146.829 30.2957 147.2 31.0516 147.553 31.7291H149.658C150.849 29.5634 151.944 27.2737 152.936 24.8587C153.93 22.4444 154.847 19.7758 155.687 16.8541H153.449C153.193 17.8727 152.873 18.9722 152.487 20.1533C152.102 21.3345 151.686 22.5056 151.244 23.6646C150.798 24.8241 150.356 25.9257 149.911 26.9696C149.467 28.0144 149.046 28.9001 148.649 29.6285C148.18 28.6692 147.719 27.6428 147.266 26.5484C146.809 25.4547 146.379 24.3468 145.974 23.2257C145.568 22.1033 145.196 21.0011 144.86 19.9179C144.523 18.834 144.252 17.8134 144.044 16.8541H142.087C141.81 17.8121 141.498 18.8327 141.151 19.9172C140.802 21.0017 140.432 22.0999 140.039 23.2127C139.646 24.3259 139.225 25.43 138.777 26.5249C138.329 27.6206 137.881 28.6452 137.435 29.5991C137.039 28.8707 136.612 27.9877 136.158 26.9508C135.701 25.9145 135.252 24.8163 134.807 23.6561C134.363 22.4965 133.947 21.3273 133.563 20.1474C133.177 18.9691 132.854 17.8714 132.597 16.8541H130.187C131.023 19.7705 131.934 22.4379 132.925 24.8547C133.914 27.271 135.005 29.5627 136.2 31.7291H138.382ZM180.601 30.6666C180.072 30.6666 179.567 30.6206 179.085 30.5306C178.601 30.4401 178.152 30.3234 177.738 30.1819C177.323 30.0412 176.961 29.8902 176.651 29.7282C176.341 29.5669 176.082 29.4152 175.875 29.2737V18.3409C176.22 18.24 176.733 18.1438 177.41 18.0525C178.089 17.962 178.98 17.9166 180.084 17.9166C182.016 17.9166 183.567 18.4672 184.74 19.5675C185.915 20.668 186.5 22.2475 186.5 24.307C186.5 25.1748 186.397 25.9985 186.19 26.7749C185.983 27.5527 185.649 28.2283 185.189 28.8041C184.73 29.3793 184.126 29.8338 183.379 30.1668C182.631 30.4997 181.706 30.6666 180.601 30.6666ZM63.7258 30.6666C63.1961 30.6666 62.6908 30.6206 62.2081 30.5306C61.7247 30.4401 61.2765 30.3234 60.8624 30.1819C60.4483 30.0412 60.0858 29.8902 59.7758 29.7282C59.4658 29.5669 59.2068 29.4152 59 29.2737V18.3409C59.3441 18.24 59.8568 18.1438 60.5348 18.0525C61.2133 17.962 62.1047 17.9166 63.2076 17.9166C65.1401 17.9166 66.6925 18.4672 67.8646 19.5675C69.0382 20.668 69.625 22.2475 69.625 24.307C69.625 25.1748 69.5216 25.9985 69.3143 26.7749C69.1077 27.5527 68.7738 28.2283 68.3141 28.8041C67.8532 29.3793 67.25 29.8338 66.5027 30.1668C65.7547 30.4997 64.8292 30.6666 63.7258 30.6666Z" fill="#2669F5"/>
</g>
<defs>
<clipPath id="clip0">
<rect width="180.625" height="34" fill="white" transform="translate(8 8)"/>
</clipPath>
</defs>
</svg>
