<svg id="Layer_1" data-name="Layer 1" xmlns="http://www.w3.org/2000/svg" viewBox="0 0 491.03223 477.16507"><defs><style>.cls-1{fill:#010101;}</style></defs><g id="noun_Elephant_1201412_Image" data-name="noun Elephant 1201412 Image"><path class="cls-1" d="M118.71641,327.92478v-1a30.202,30.202,0,0,0,1.14-4.29q6.39-55.86,12.79-111.7a13.16,13.16,0,0,1,2.34-6.37q21.92-27.9,44.18-55.51a8.86,8.86,0,0,1,5.31-2.95q24.53-2.93,49.13-5.35a43.37991,43.37991,0,0,0,17.41-5.33c16.68-9.37,33.61-18.31,50.37-27.55a7,7,0,0,1,7.34-.18c24.47,12.08,49,24,73.52,36,1.58.78,3.1,1.68,6,3.23l-20,19.42c1.42.38,2.32.71,3.25.86,22.84,3.64,45.73,7,68.5,11,24.7,4.31,50,6.94,72.13,20.19,16.26,9.74,32,20.36,48.15,30.26,7.63,4.67,10.51,11.5,10,19.79-.83,14.27-1.89,28.55-3.46,42.77-1.43,12.85-4.68,25.21-13,35.68-.75.95-.75,2.83-.51,4.18q11.71993,66.17,23.52,132.3c1.14,6.48,1.68,13.07,2.49,19.61h-59.97c3-3.45,5.73-7.17,9-10.27,2.75-2.57,3.18-4.56,1.47-8.08q-25.45-52.31-50.43-104.82c-2-4.12-4.14-4.93-8.43-4.3-18.92,2.78-37.9,5.16-56.86,7.68q-41.79,5.56-83.59,11.12c-3.14.41-5.34,1.43-6.94,4.6q-26.32,52.01005-52.99,104.01h-60.94a29.48032,29.48032,0,0,1,1.91-5c5.23-8.71,10.63-17.32,15.87-26a27.77935,27.77935,0,0,0,2.9-6.32q19.67-67.10994,39.09-134.29a7.31,7.31,0,0,0-1.5-6c-7.28-7.55-14.8-14.88-22.47-22a7.30994,7.30994,0,0,0-5.63-1.54c-18.25,3.77-36.42,7.89-54.67,11.66-3.13.64-4,2.16-4.38,4.93-1.92,15.38-4,30.73-5.87,46.11-.18,1.5,0,3.58.92,4.6,5.82,6.59,11.89,13,18.23,19.78l21.62-20.75c2.39,16.18,4.61,31.24,6.94,47-11.75,2.24-23.12,4.43-34.52,6.53a7.71013,7.71013,0,0,1-2.92-.52c-6.79-1.65-13.66-3.06-20.32-5.11a12.58,12.58,0,0,1-6.42-4.71c-7.47-11.63-14.52-23.52-21.83-35.26C130.71641,346.6248,124.71641,337.27479,118.71641,327.92478Z" transform="translate(-102.81641 -106.74313)"/><path class="cls-1" d="M431.4264,482.92478c3.05-5.09,5.83-10.37,9.25-15.19a20.12014,20.12014,0,0,0,3.77-12.51c-.18-23.3,0-46.61-.16-69.92,0-3.42,1-5.53,3.92-7.29,5.51-3.36,10.83-7,16.6-10.81,1.11,1.68,2,3,2.87,4.4,9.86,16.59,19.78,33.15,29.45,49.85a12.92012,12.92012,0,0,1,1.53,7.42c-1.94,18-4.16,36-6.29,54.05Z" transform="translate(-102.81641 -106.74313)"/><path class="cls-1" d="M313.53641,482.92478c2.78-1.75,5.42-3.81,8.38-5.17,3.15-1.44,4-3,2.94-6.49q-6-19.83-11.23-39.85a11.79,11.79,0,0,1,.54-7.45q8.1-17.13995,16.94-33.92a10.48987,10.48987,0,0,1,5.61-4.72c7.44-2.28,15.07-3.95,23.39-6.05.91,4,1.85,7.79,2.61,11.59q8.75,43.8,17.42,87.61a36.40834,36.40834,0,0,1,.34,4.45Z" transform="translate(-102.81641 -106.74313)"/></g><path class="cls-1" d="M102.81641,572.55762l8.709-8.416c4.69727,5.48047,10.47022,8.416,17.51611,8.416,7.92627,0,12.03614-3.81641,12.03614-9.58985,0-4.59961-2.15284-7.43652-9.29639-8.709l-6.4585-.97852c-13.79736-2.15332-20.45166-8.709-20.45166-19.86425,0-12.23243,9.49219-20.15821,24.75733-20.15821,10.2749,0,17.90771,3.52246,23.3872,10.0791L144.209,531.6543c-3.32714-4.208-8.02441-7.0459-15.26562-7.0459-7.33887,0-11.15527,2.93555-11.15527,8.02441,0,5.18653,2.93554,7.33887,9.4917,8.51367l6.36083,1.17383c13.79737,2.44629,20.25586,8.61133,20.25586,19.86426,0,12.917-9.29638,21.72363-25.63818,21.72363C116.61377,583.9082,108.58984,579.30957,102.81641,572.55762Z" transform="translate(-102.81641 -106.74313)"/><path class="cls-1" d="M189.22217,525.88086v56.85352h-12.917V525.88086h-19.375V514.43164h51.667v11.44922Z" transform="translate(-102.81641 -106.74313)"/><path class="cls-1" d="M252.63184,582.73438l-5.48-17.418H222.88379l-5.38184,17.418h-13.1123l22.898-68.30274h16.04785l22.70215,68.30274Zm-17.418-56.55958h-.48975l-8.709,28.084h18.00537Z" transform="translate(-102.81641 -106.74313)"/><path class="cls-1" d="M295.6875,551.8125l-9.10059,10.76367v20.15821h-12.917V514.43164h12.917v33.66211h.48926l9.6875-12.81934,16.92871-20.84277h14.874l-23.77832,28.47559,25.73535,39.82715h-15.3628Z" transform="translate(-102.81641 -106.74313)"/><path class="cls-1" d="M337.56836,582.73438V514.43164H382.582v11.44922H350.48535V542.418h28.37793v11.44922H350.48535v17.418H382.582v11.44922Z" transform="translate(-102.81641 -106.74313)"/><path class="cls-1" d="M414.48047,514.43164H439.335c17.80957,0,29.4541,11.44922,29.4541,34.15137s-11.64453,34.15137-29.4541,34.15137H414.48047ZM439.335,571.28516c9.58984,0,15.75488-5.67578,15.75488-17.32032V543.20117c0-11.64453-6.165-17.32031-15.75488-17.32031H427.39648v45.4043Z" transform="translate(-102.81641 -106.74313)"/><path class="cls-1" d="M518.792,582.73438l-5.47949-17.418H489.04492l-5.38281,17.418H470.5498l22.89844-68.30274h16.04785l22.70215,68.30274ZM501.374,526.1748h-.48925l-8.709,28.084h18.00586Z" transform="translate(-102.81641 -106.74313)"/><path class="cls-1" d="M534.35352,548.583c0-23.09375,11.83984-35.3252,29.74707-35.3252,18.00586,0,29.748,12.23145,29.748,35.3252s-11.74218,35.32519-29.748,35.32519C546.19336,583.9082,534.35352,571.67676,534.35352,548.583Zm45.79589,5.28418V543.29883c0-11.64453-6.26269-18.5918-16.04882-18.5918-9.78516,0-16.04786,6.94727-16.04786,18.5918v10.56836c0,11.64453,6.2627,18.59277,16.04786,18.59277C573.88672,572.46,580.14941,565.51172,580.14941,553.86719Z" transform="translate(-102.81641 -106.74313)"/></svg>